<svg width="25" height="24" viewBox="0 0 25 24" fill="none" xmlns="http://www.w3.org/2000/svg">
<path d="M3.30029 5.40002H21.7003L19.8833 21.042C19.821 21.5803 19.5533 22.0778 19.1315 22.439C18.7096 22.8003 18.1633 23.0001 17.5971 23H7.40349C6.83727 23.0001 6.29094 22.8003 5.8691 22.439C5.44727 22.0778 5.17958 21.5803 5.11729 21.042L3.30029 5.40002Z" stroke="#858492" stroke-linecap="round" stroke-linejoin="round"/>
<path d="M7.14685 2.2617C7.33286 1.88436 7.62721 1.5654 7.99555 1.342C8.3639 1.11861 8.79105 0.999995 9.2272 1H15.773C16.2093 0.999786 16.6367 1.1183 17.0053 1.34171C17.3739 1.56511 17.6684 1.8842 17.8545 2.2617L19.4001 5.4H5.6001L7.14685 2.2617Z" stroke="#858492" stroke-linecap="round" stroke-linejoin="round"/>
<path d="M1 5.40002H24" stroke="#858492" stroke-linecap="round" stroke-linejoin="round"/>
<path d="M10.1997 10.9V16.4" stroke="#858492" stroke-linecap="round" stroke-linejoin="round"/>
<path d="M14.8003 10.9V16.4" stroke="#858492" stroke-linecap="round" stroke-linejoin="round"/>
</svg>
