<svg width="28" height="28" viewBox="0 0 28 28" fill="none" xmlns="http://www.w3.org/2000/svg">
<path d="M20.0781 4.6826L23.3175 7.92039L20.0781 4.6826ZM22.1612 1.83021L13.4022 10.5892C12.9496 11.0412 12.641 11.617 12.5151 12.2441L11.7061 16.294L15.756 15.4834C16.383 15.358 16.9581 15.0506 17.4108 14.5979L26.1699 5.83884C26.4331 5.57563 26.6419 5.26316 26.7843 4.91926C26.9267 4.57536 27.0001 4.20676 27.0001 3.83453C27.0001 3.46229 26.9267 3.0937 26.7843 2.7498C26.6419 2.4059 26.4331 2.09342 26.1699 1.83021C25.9066 1.567 25.5942 1.35821 25.2503 1.21577C24.9064 1.07332 24.5378 1 24.1655 1C23.7933 1 23.4247 1.07332 23.0808 1.21577C22.7369 1.35821 22.4244 1.567 22.1612 1.83021V1.83021Z" stroke="#00B51F" stroke-linecap="round" stroke-linejoin="round"/>
<path d="M23.9414 19.3529V23.9411C23.9414 24.7524 23.6191 25.5304 23.0455 26.1041C22.4718 26.6777 21.6938 27 20.8826 27H4.05885C3.2476 27 2.46956 26.6777 1.89592 26.1041C1.32227 25.5304 1 24.7524 1 23.9411V7.11745C1 6.30619 1.32227 5.52816 1.89592 4.95451C2.46956 4.38086 3.2476 4.05859 4.05885 4.05859H8.64714" stroke="#00B51F" stroke-linecap="round" stroke-linejoin="round"/>
</svg>
