<svg width="649" height="442" viewBox="0 0 649 442" fill="none" xmlns="http://www.w3.org/2000/svg">
<g clip-path="url(#clip0)">
<path opacity="0.1" d="M266.724 435.49C310.592 411.197 360.704 403.433 409.677 413.845C479.073 428.609 566.291 422.822 583.184 308.922C612.037 114.396 491.129 63.0533 491.129 63.0533C491.129 63.0533 410.724 56.3151 363.18 30.6609C295.645 -5.7927 218.451 -10.4348 150.574 20.4083C107.168 40.1161 71.4224 67.5588 65.315 105.237C48.2391 210.611 76.2833 268.669 23.8207 303.066C-28.6418 337.464 16.1936 431.901 56.4128 428.632C96.632 425.362 187.515 389.495 222.93 431.041C235.509 445.776 251.424 443.965 266.724 435.49Z" fill="#6C63FF"/>
<path opacity="0.1" d="M474.861 85.5578H293.857V98.0887H474.861V85.5578Z" fill="#6C63FF"/>
<path opacity="0.1" d="M474.861 139.669H293.857V152.2H474.861V139.669Z" fill="#6C63FF"/>
<path opacity="0.1" d="M474.861 196.058H293.857V208.589H474.861V196.058Z" fill="#6C63FF"/>
<path opacity="0.1" d="M321.179 53.0913H309.795V85.5578H321.179V53.0913Z" fill="#6C63FF"/>
<path opacity="0.1" d="M321.179 58.2175H309.795V60.4959H321.179V58.2175Z" fill="#6C63FF"/>
<path opacity="0.1" d="M321.179 75.8748H309.795V78.1531H321.179V75.8748Z" fill="#6C63FF"/>
<path opacity="0.1" d="M338.255 53.0913H326.871V85.5578H338.255V53.0913Z" fill="#6C63FF"/>
<path opacity="0.1" d="M338.255 58.2175H326.871V60.4959H338.255V58.2175Z" fill="#6C63FF"/>
<path opacity="0.1" d="M338.255 75.8748H326.871V78.1531H338.255V75.8748Z" fill="#6C63FF"/>
<path opacity="0.1" d="M355.33 53.0913H343.947V85.5578H355.33V53.0913Z" fill="#6C63FF"/>
<path opacity="0.1" d="M355.33 58.2175H343.947V60.4959H355.33V58.2175Z" fill="#6C63FF"/>
<path opacity="0.1" d="M355.33 75.8748H343.947V78.1531H355.33V75.8748Z" fill="#6C63FF"/>
<path opacity="0.1" d="M372.406 53.0913H361.022V85.5578H372.406V53.0913Z" fill="#6C63FF"/>
<path opacity="0.1" d="M372.406 58.2175H361.022V60.4959H372.406V58.2175Z" fill="#6C63FF"/>
<path opacity="0.1" d="M372.406 75.8748H361.022V78.1531H372.406V75.8748Z" fill="#6C63FF"/>
<path opacity="0.1" d="M389.482 53.0913H378.098V85.5578H389.482V53.0913Z" fill="#6C63FF"/>
<path opacity="0.1" d="M389.482 58.2175H378.098V60.4959H389.482V58.2175Z" fill="#6C63FF"/>
<path opacity="0.1" d="M389.482 75.8748H378.098V78.1531H389.482V75.8748Z" fill="#6C63FF"/>
<path opacity="0.1" d="M406.558 53.0913H395.174V85.5578H406.558V53.0913Z" fill="#6C63FF"/>
<path opacity="0.1" d="M406.558 58.2175H395.174V60.4959H406.558V58.2175Z" fill="#6C63FF"/>
<path opacity="0.1" d="M406.558 75.8748H395.174V78.1531H406.558V75.8748Z" fill="#6C63FF"/>
<path opacity="0.1" d="M423.634 53.0913H412.25V85.5578H423.634V53.0913Z" fill="#6C63FF"/>
<path opacity="0.1" d="M423.634 58.2175H412.25V60.4959H423.634V58.2175Z" fill="#6C63FF"/>
<path opacity="0.1" d="M423.634 75.8748H412.25V78.1531H423.634V75.8748Z" fill="#6C63FF"/>
<path opacity="0.1" d="M416.894 162.737L406.718 167.843L421.26 196.865L431.437 191.759L416.894 162.737Z" fill="#6C63FF"/>
<path opacity="0.1" d="M419.194 167.323L409.017 172.429L410.038 174.466L420.214 169.36L419.194 167.323Z" fill="#6C63FF"/>
<path opacity="0.1" d="M427.098 183.109L416.922 188.215L417.942 190.252L428.118 185.146L427.098 183.109Z" fill="#6C63FF"/>
<path opacity="0.1" d="M321.179 107.772H309.795V140.238H321.179V107.772Z" fill="#6C63FF"/>
<path opacity="0.1" d="M321.179 112.898H309.795V115.176H321.179V112.898Z" fill="#6C63FF"/>
<path opacity="0.1" d="M321.179 130.555H309.795V132.834H321.179V130.555Z" fill="#6C63FF"/>
<path opacity="0.1" d="M338.255 107.772H326.871V140.238H338.255V107.772Z" fill="#6C63FF"/>
<path opacity="0.1" d="M338.255 112.898H326.871V115.176H338.255V112.898Z" fill="#6C63FF"/>
<path opacity="0.1" d="M338.255 130.555H326.871V132.834H338.255V130.555Z" fill="#6C63FF"/>
<path opacity="0.1" d="M355.33 107.772H343.947V140.238H355.33V107.772Z" fill="#6C63FF"/>
<path opacity="0.1" d="M355.33 112.898H343.947V115.176H355.33V112.898Z" fill="#6C63FF"/>
<path opacity="0.1" d="M355.33 130.555H343.947V132.834H355.33V130.555Z" fill="#6C63FF"/>
<path opacity="0.1" d="M426.48 107.772H415.096V140.238H426.48V107.772Z" fill="#6C63FF"/>
<path opacity="0.1" d="M426.48 112.898H415.096V115.176H426.48V112.898Z" fill="#6C63FF"/>
<path opacity="0.1" d="M426.48 130.555H415.096V132.834H426.48V130.555Z" fill="#6C63FF"/>
<path opacity="0.1" d="M443.555 107.772H432.171V140.238H443.555V107.772Z" fill="#6C63FF"/>
<path opacity="0.1" d="M443.555 112.898H432.171V115.176H443.555V112.898Z" fill="#6C63FF"/>
<path opacity="0.1" d="M443.555 130.555H432.171V132.834H443.555V130.555Z" fill="#6C63FF"/>
<path opacity="0.1" d="M460.631 107.772H449.247V140.238H460.631V107.772Z" fill="#6C63FF"/>
<path opacity="0.1" d="M460.631 112.898H449.247V115.176H460.631V112.898Z" fill="#6C63FF"/>
<path opacity="0.1" d="M460.631 130.555H449.247V132.834H460.631V130.555Z" fill="#6C63FF"/>
<path opacity="0.1" d="M321.179 163.591H309.795V196.058H321.179V163.591Z" fill="#6C63FF"/>
<path opacity="0.1" d="M321.179 168.718H309.795V170.996H321.179V168.718Z" fill="#6C63FF"/>
<path opacity="0.1" d="M321.179 186.375H309.795V188.653H321.179V186.375Z" fill="#6C63FF"/>
<path opacity="0.1" d="M338.255 163.591H326.871V196.058H338.255V163.591Z" fill="#6C63FF"/>
<path opacity="0.1" d="M338.255 168.718H326.871V170.996H338.255V168.718Z" fill="#6C63FF"/>
<path opacity="0.1" d="M338.255 186.375H326.871V188.653H338.255V186.375Z" fill="#6C63FF"/>
<path opacity="0.1" d="M355.33 163.591H343.947V196.058H355.33V163.591Z" fill="#6C63FF"/>
<path opacity="0.1" d="M355.33 168.718H343.947V170.996H355.33V168.718Z" fill="#6C63FF"/>
<path opacity="0.1" d="M355.33 186.375H343.947V188.653H355.33V186.375Z" fill="#6C63FF"/>
<path opacity="0.1" d="M372.406 163.591H361.022V196.058H372.406V163.591Z" fill="#6C63FF"/>
<path opacity="0.1" d="M372.406 168.718H361.022V170.996H372.406V168.718Z" fill="#6C63FF"/>
<path opacity="0.1" d="M372.406 186.375H361.022V188.653H372.406V186.375Z" fill="#6C63FF"/>
<path opacity="0.1" d="M389.482 163.591H378.098V196.058H389.482V163.591Z" fill="#6C63FF"/>
<path opacity="0.1" d="M389.482 168.718H378.098V170.996H389.482V168.718Z" fill="#6C63FF"/>
<path opacity="0.1" d="M389.482 186.375H378.098V188.653H389.482V186.375Z" fill="#6C63FF"/>
<path opacity="0.1" d="M406.558 163.591H395.174V196.058H406.558V163.591Z" fill="#6C63FF"/>
<path opacity="0.1" d="M406.558 168.718H395.174V170.996H406.558V168.718Z" fill="#6C63FF"/>
<path opacity="0.1" d="M406.558 186.375H395.174V188.653H406.558V186.375Z" fill="#6C63FF"/>
<path opacity="0.1" d="M440.709 55.9848V85.5578H429.325V53.8146C433.135 54.4867 436.93 55.2101 440.709 55.9848Z" fill="#6C63FF"/>
<path opacity="0.1" d="M440.709 58.2175H429.326V60.4959H440.709V58.2175Z" fill="#6C63FF"/>
<path opacity="0.1" d="M440.709 75.8748H429.326V78.1531H440.709V75.8748Z" fill="#6C63FF"/>
<path opacity="0.1" d="M457.785 59.9377V85.5692H446.401V57.2037C447.881 57.5284 449.355 57.8701 450.83 58.2176C453.16 58.7644 455.478 59.3377 457.785 59.9377Z" fill="#6C63FF"/>
<path opacity="0.1" d="M457.785 59.9377V60.5073H446.401V58.2289H450.83C453.16 58.7682 455.478 59.3377 457.785 59.9377Z" fill="#6C63FF"/>
<path opacity="0.1" d="M457.785 75.8748H446.401V78.1531H457.785V75.8748Z" fill="#6C63FF"/>
<g opacity="0.1">
<path opacity="0.1" d="M378.32 128.436C378.32 128.436 374.871 127.263 373.197 130.31C372.76 131.135 372.537 132.057 372.55 132.991C372.563 133.925 372.811 134.841 373.271 135.653C374.364 137.624 376.613 140.21 380.87 139.959C384.484 139.765 385.685 137.009 385.993 134.44C386.111 133.479 385.982 132.504 385.618 131.607C385.255 130.709 384.669 129.92 383.916 129.312C383.163 128.704 382.268 128.299 381.314 128.133C380.361 127.968 379.382 128.049 378.468 128.368L378.32 128.436Z" fill="#6C63FF"/>
<path opacity="0.1" d="M374.023 135.932C373.562 135.12 373.314 134.204 373.301 133.27C373.288 132.336 373.511 131.414 373.949 130.589C375.611 127.548 379.071 128.715 379.071 128.715L379.248 128.653C380.565 128.176 382.012 128.208 383.306 128.744C382.592 128.318 381.792 128.056 380.964 127.978C380.136 127.899 379.301 128.005 378.519 128.288L378.343 128.351C378.343 128.351 374.894 127.178 373.22 130.225C372.783 131.05 372.56 131.972 372.573 132.906C372.586 133.84 372.834 134.755 373.294 135.568C374.149 137.199 375.523 138.5 377.199 139.264C375.855 138.465 374.757 137.313 374.023 135.932Z" fill="#6C63FF"/>
<path opacity="0.2" d="M376.539 129.9C376.539 129.9 377.819 130.908 380.927 129.9H376.539Z" fill="#6C63FF"/>
<path opacity="0.1" d="M376.26 122.581C376.26 122.581 378.451 128.527 378.269 130.082L380.005 129.9C380.005 129.9 377.079 124.688 377.813 122.581H376.26Z" fill="#6C63FF"/>
<path opacity="0.2" d="M376.26 122.581C376.26 122.581 378.451 128.527 378.269 130.082L380.005 129.9C380.005 129.9 377.079 124.688 377.813 122.581H376.26Z" fill="#6C63FF"/>
<path opacity="0.1" d="M385.219 123.082C385.219 123.082 381.764 121.316 380.221 122.775C378.679 124.233 378.44 127.964 378.44 127.964C378.44 127.964 384.069 128.727 385.219 123.082Z" fill="#6C63FF"/>
<path opacity="0.1" d="M385.219 123.082C385.219 123.082 381.764 121.316 380.221 122.775C378.679 124.233 378.44 127.964 378.44 127.964C378.44 127.964 384.069 128.727 385.219 123.082Z" fill="#6C63FF"/>
<path opacity="0.1" d="M378.434 127.964C378.434 127.964 379.339 123.635 385.213 123.076L378.434 127.964Z" fill="#6C63FF"/>
</g>
<g opacity="0.1">
<path opacity="0.1" d="M451.177 184.825C451.177 184.825 447.728 183.652 446.054 186.699C445.616 187.524 445.394 188.446 445.407 189.38C445.42 190.314 445.668 191.23 446.128 192.042C447.221 194.013 449.469 196.599 453.727 196.348C457.341 196.155 458.542 193.398 458.85 190.829C458.967 189.868 458.839 188.893 458.475 187.996C458.112 187.099 457.526 186.309 456.773 185.701C456.02 185.093 455.124 184.688 454.171 184.523C453.218 184.358 452.238 184.438 451.325 184.757L451.177 184.825Z" fill="#6C63FF"/>
<path opacity="0.1" d="M446.879 192.321C446.419 191.509 446.171 190.593 446.158 189.659C446.145 188.726 446.368 187.803 446.805 186.979C448.468 183.937 451.928 185.105 451.928 185.105L452.105 185.042C453.422 184.565 454.869 184.598 456.163 185.133C455.449 184.707 454.649 184.446 453.821 184.367C452.993 184.288 452.158 184.394 451.376 184.677L451.2 184.74C451.2 184.74 447.75 183.567 446.077 186.614C445.639 187.439 445.417 188.361 445.43 189.295C445.443 190.229 445.691 191.144 446.151 191.957C447.006 193.589 448.38 194.889 450.056 195.653C448.712 194.854 447.613 193.702 446.879 192.321Z" fill="#6C63FF"/>
<path opacity="0.2" d="M449.395 186.289C449.395 186.289 450.676 187.297 453.784 186.289H449.395Z" fill="#6C63FF"/>
<path opacity="0.1" d="M449.116 178.97C449.116 178.97 451.308 184.917 451.126 186.472L452.862 186.289C452.862 186.289 449.936 181.078 450.67 178.97H449.116Z" fill="#6C63FF"/>
<path opacity="0.2" d="M449.116 178.97C449.116 178.97 451.308 184.917 451.126 186.472L452.862 186.289C452.862 186.289 449.936 181.078 450.67 178.97H449.116Z" fill="#6C63FF"/>
<path opacity="0.1" d="M458.075 179.471C458.075 179.471 454.62 177.706 453.078 179.164C451.535 180.622 451.296 184.353 451.296 184.353C451.296 184.353 456.926 185.116 458.075 179.471Z" fill="#6C63FF"/>
<path opacity="0.1" d="M458.075 179.471C458.075 179.471 454.62 177.706 453.078 179.164C451.535 180.622 451.296 184.353 451.296 184.353C451.296 184.353 456.926 185.116 458.075 179.471Z" fill="#6C63FF"/>
<path opacity="0.1" d="M451.291 184.353C451.291 184.353 452.196 180.024 458.07 179.466L451.291 184.353Z" fill="#6C63FF"/>
</g>
<path opacity="0.1" d="M566.359 358.863C583.334 358.863 597.095 353.967 597.095 347.927C597.095 341.887 583.334 336.991 566.359 336.991C549.384 336.991 535.622 341.887 535.622 347.927C535.622 353.967 549.384 358.863 566.359 358.863Z" fill="black"/>
<path d="M566.382 348.018C566.382 348.018 583.918 288.445 563.092 244.592C554.355 226.189 551.452 205.53 555.487 185.56C557.419 176.088 560.214 166.812 563.837 157.85" stroke="#535461" stroke-width="2" stroke-miterlimit="10"/>
<path d="M550.882 130.134C550.882 137.436 564.093 158.613 564.093 158.613C564.093 158.613 577.304 137.441 577.304 130.134C577.304 126.627 575.913 123.265 573.435 120.786C570.957 118.306 567.597 116.914 564.093 116.914C560.59 116.914 557.229 118.306 554.752 120.786C552.274 123.265 550.882 126.627 550.882 130.134Z" fill="#00B51F"/>
<path d="M529.043 170.574C533.027 176.703 555.595 187.292 555.595 187.292C555.595 187.292 555.186 162.332 551.218 156.204C550.275 154.745 549.055 153.487 547.626 152.5C546.197 151.514 544.588 150.819 542.89 150.454C541.193 150.09 539.44 150.064 537.733 150.378C536.025 150.691 534.396 151.339 532.939 152.282C531.481 153.226 530.223 154.447 529.238 155.877C528.252 157.307 527.557 158.917 527.193 160.616C526.829 162.315 526.803 164.068 527.117 165.777C527.43 167.486 528.077 169.116 529.02 170.574H529.043Z" fill="#00B51F"/>
<path d="M529.982 239.688C536.499 242.975 561.339 240.702 561.339 240.702C561.339 240.702 548.395 219.365 541.878 216.079C540.329 215.297 538.641 214.828 536.911 214.7C535.181 214.571 533.442 214.784 531.794 215.327C530.146 215.871 528.622 216.734 527.307 217.867C525.993 219 524.914 220.381 524.133 221.931C523.352 223.481 522.884 225.17 522.755 226.902C522.626 228.633 522.839 230.373 523.382 232.022C523.925 233.671 524.788 235.196 525.92 236.512C527.052 237.827 528.433 238.907 529.982 239.688Z" fill="#00B51F"/>
<path d="M542.504 291.817C548.372 296.157 573.24 298.122 573.24 298.122C573.24 298.122 564.088 274.9 558.219 270.56C556.825 269.527 555.24 268.78 553.557 268.36C551.873 267.94 550.124 267.856 548.408 268.113C546.692 268.37 545.043 268.962 543.556 269.856C542.069 270.751 540.772 271.929 539.74 273.325C538.709 274.721 537.962 276.306 537.542 277.991C537.122 279.676 537.038 281.427 537.295 283.144C537.552 284.861 538.144 286.511 539.038 287.999C539.931 289.487 541.109 290.784 542.504 291.817Z" fill="#00B51F"/>
<path d="M583.338 188.704C578.107 193.791 553.74 199.059 553.74 199.059C553.74 199.059 559.711 174.824 564.942 169.737C566.184 168.518 567.655 167.556 569.27 166.907C570.885 166.259 572.612 165.936 574.353 165.957C576.093 165.978 577.812 166.343 579.41 167.031C581.009 167.719 582.456 168.716 583.669 169.966C584.881 171.215 585.835 172.692 586.475 174.311C587.116 175.93 587.43 177.66 587.4 179.401C587.371 181.143 586.998 182.861 586.302 184.457C585.607 186.054 584.604 187.497 583.349 188.704H583.338Z" fill="#00B51F"/>
<path d="M597.146 249.855C590.629 253.142 565.79 250.869 565.79 250.869C565.79 250.869 578.733 229.532 585.25 226.246C586.799 225.464 588.487 224.996 590.217 224.867C591.948 224.738 593.686 224.951 595.334 225.495C596.982 226.038 598.506 226.901 599.821 228.034C601.135 229.167 602.214 230.548 602.995 232.098C603.776 233.649 604.244 235.338 604.373 237.069C604.502 238.8 604.289 240.54 603.746 242.189C603.203 243.838 602.34 245.364 601.208 246.679C600.076 247.994 598.696 249.074 597.146 249.855Z" fill="#00B51F"/>
<path d="M602.463 311.137C596.594 315.477 571.726 317.443 571.726 317.443C571.726 317.443 580.879 294.22 586.747 289.88C588.14 288.825 589.729 288.056 591.421 287.619C593.113 287.182 594.875 287.086 596.604 287.335C598.334 287.584 599.997 288.174 601.497 289.071C602.997 289.968 604.305 291.153 605.344 292.559C606.383 293.965 607.133 295.563 607.55 297.261C607.968 298.959 608.044 300.723 607.776 302.451C607.508 304.179 606.899 305.837 605.986 307.328C605.073 308.818 603.874 310.113 602.457 311.137H602.463Z" fill="#00B51F"/>
<path opacity="0.1" d="M489.859 327.422C506.834 327.422 520.596 322.525 520.596 316.486C520.596 310.446 506.834 305.55 489.859 305.55C472.884 305.55 459.123 310.446 459.123 316.486C459.123 322.525 472.884 327.422 489.859 327.422Z" fill="black"/>
<path d="M488.613 318.041C488.613 318.041 496.826 290.131 487.07 269.586C482.923 260.995 481.673 251.289 483.507 241.927C484.413 237.489 485.724 233.144 487.423 228.946" stroke="#535461" stroke-width="2" stroke-miterlimit="10"/>
<path d="M481.35 215.959C481.35 219.377 487.537 229.299 487.537 229.299C487.537 229.299 493.724 219.377 493.724 215.959C493.724 214.316 493.072 212.741 491.911 211.579C490.75 210.417 489.176 209.765 487.534 209.765C485.892 209.765 484.318 210.417 483.157 211.579C481.996 212.741 481.344 214.316 481.344 215.959H481.35Z" fill="#00B51F"/>
<path d="M471.121 234.904C472.977 237.752 483.564 242.735 483.564 242.735C483.564 242.735 483.37 231.042 481.515 228.171C481.073 227.488 480.501 226.899 479.832 226.437C479.163 225.975 478.409 225.65 477.614 225.48C476.819 225.31 475.999 225.298 475.199 225.445C474.399 225.592 473.637 225.895 472.954 226.337C472.272 226.779 471.683 227.351 471.222 228.021C470.76 228.691 470.435 229.445 470.265 230.24C470.095 231.036 470.083 231.857 470.23 232.657C470.377 233.457 470.68 234.221 471.121 234.904Z" fill="#00B51F"/>
<path d="M471.565 267.285C474.616 268.823 486.256 267.763 486.256 267.763C486.256 267.763 480.194 257.767 477.149 256.223C476.423 255.857 475.633 255.638 474.822 255.577C474.011 255.517 473.197 255.617 472.425 255.872C470.866 256.386 469.575 257.499 468.836 258.966C468.097 260.433 467.971 262.133 468.485 263.693C468.999 265.253 470.111 266.545 471.577 267.285H471.565Z" fill="#00B51F"/>
<path d="M477.417 291.709C480.166 293.742 491.817 294.665 491.817 294.665C491.817 294.665 487.526 283.786 484.782 281.752C484.128 281.269 483.386 280.919 482.597 280.722C481.808 280.526 480.988 280.487 480.185 280.607C479.381 280.728 478.608 281.006 477.912 281.425C477.215 281.844 476.608 282.397 476.125 283.051C475.641 283.705 475.292 284.448 475.095 285.237C474.899 286.027 474.86 286.847 474.98 287.652C475.101 288.456 475.379 289.229 475.798 289.926C476.217 290.623 476.769 291.231 477.422 291.714L477.417 291.709Z" fill="#00B51F"/>
<path d="M496.559 243.402C494.105 245.783 482.682 248.255 482.682 248.255C482.682 248.255 485.482 236.897 487.93 234.516C489.107 233.372 490.691 232.743 492.332 232.767C493.973 232.791 495.537 233.466 496.681 234.644C497.825 235.823 498.453 237.407 498.429 239.05C498.405 240.692 497.73 242.258 496.553 243.402H496.559Z" fill="#00B51F"/>
<path d="M503.042 272.052C499.991 273.59 488.351 272.531 488.351 272.531C488.351 272.531 494.413 262.534 497.458 260.991C498.924 260.251 500.623 260.125 502.182 260.639C503.741 261.153 505.032 262.267 505.771 263.733C506.51 265.2 506.636 266.901 506.122 268.461C505.608 270.021 504.496 271.313 503.03 272.052H503.042Z" fill="#00B51F"/>
<path d="M505.506 300.742C502.757 302.776 491.106 303.698 491.106 303.698C491.106 303.698 495.397 292.819 498.141 290.786C498.794 290.302 499.536 289.951 500.325 289.755C501.114 289.558 501.933 289.518 502.737 289.638C503.541 289.758 504.314 290.036 505.01 290.454C505.707 290.873 506.315 291.425 506.798 292.079C507.282 292.733 507.632 293.475 507.829 294.264C508.026 295.054 508.065 295.874 507.945 296.678C507.825 297.483 507.548 298.256 507.13 298.953C506.711 299.65 506.16 300.258 505.506 300.742Z" fill="#00B51F"/>
<path d="M225.406 120.878H226.784C228.679 120.878 230.216 119.34 230.216 117.443V90.7353C230.216 88.8384 228.679 87.3007 226.784 87.3007H225.406C223.511 87.3007 221.974 88.8384 221.974 90.7353V117.443C221.974 119.34 223.511 120.878 225.406 120.878Z" fill="#535461"/>
<path d="M233.261 105.06H148.4V193.147H233.261V105.06Z" fill="#865A61"/>
<path opacity="0.1" d="M233.261 92.9282H148.4V181.015H233.261V92.9282Z" fill="black"/>
<path d="M230.364 178.116L225.241 215.367L222.828 232.876L221.94 239.307L214.501 253.82L200.84 280.454L174.486 283.62L128.131 218.203C128.131 218.203 103.861 171.788 140.762 176.003C161.452 178.372 166.375 159.838 166.745 143.097C166.838 134.669 166.075 126.253 164.468 117.979L201.364 135.915C200.506 139.913 199.861 143.587 199.428 146.937C197.63 160.641 199.121 169.185 202.24 174.362C210.545 188.152 230.364 178.116 230.364 178.116Z" fill="#FDC2CC"/>
<path opacity="0.1" d="M201.375 135.921C200.517 139.919 199.872 143.593 199.44 146.942C195.611 148.033 191.649 148.585 187.669 148.583C180.339 148.595 173.131 146.709 166.745 143.109C166.838 134.68 166.075 126.264 164.468 117.99L201.375 135.921Z" fill="black"/>
<path d="M187.669 147.523C211.249 147.523 230.364 128.395 230.364 104.798C230.364 81.2022 211.249 62.0737 187.669 62.0737C164.089 62.0737 144.974 81.2022 144.974 104.798C144.974 128.395 164.089 147.523 187.669 147.523Z" fill="#FDC2CC"/>
<path d="M244.599 347.961L69.0716 361.688L97.5313 328.458C128.069 309.787 127.807 284.122 123.748 268.202C122.489 263.1 120.586 258.179 118.085 253.558L178.755 253.842H179.267L184.254 265.183L184.481 265.695L188.192 274.131L200.84 251.45L205.24 244.353L207.699 240.366C207.699 240.366 244.07 231.925 244.594 253.552C244.657 256.035 244.56 258.52 244.303 260.991C242.493 278.397 232.977 289.971 225.093 297.86C216.134 306.82 244.599 347.961 244.599 347.961Z" fill="#EC7580"/>
<path d="M223.636 301.619C222.35 306.746 225.594 315.557 229.897 324.209C209.264 326.431 186.639 325.274 186.639 325.274L163.421 331.608L98.0663 350.598C95.2204 346.913 92.9436 342.282 91.0596 337.065L97.537 329.501C117.92 317.038 124.579 301.46 125.553 287.744C125.94 281.519 125.333 275.272 123.754 269.238C122.495 264.141 120.594 259.224 118.096 254.606L178.767 254.89H179.279L184.265 266.231L184.493 266.744L188.204 275.179L200.851 252.498L205.24 245.401L207.699 241.414C207.699 241.414 244.07 232.961 244.599 254.606C244.663 257.089 244.566 259.574 244.309 262.044C242.499 279.451 232.982 291.025 225.099 298.914C224.373 299.664 223.867 300.6 223.636 301.619Z" fill="#EC7580"/>
<path d="M360.561 328.971C359.508 341.627 328.937 324.75 328.937 324.75C328.937 324.75 319.448 321.583 287.295 301.016C270.97 290.576 258.097 275.536 250.297 257.79C249.067 255.047 248.038 252.218 247.218 249.326L269.371 232.961L275.831 242.844L297.307 275.68L328.931 296.755C328.931 296.755 361.614 316.315 360.561 328.971Z" fill="#FDC2CC"/>
<path d="M642.027 370.642H34.2825L95.1236 352.626L247.223 307.583L344.214 278.859H469.141L642.027 370.642Z" fill="#CBCDDA"/>
<path d="M34.2825 370.642L32.7002 398.597H643.081L642.027 370.642H34.2825Z" fill="#CBCDDA"/>
<path opacity="0.1" d="M34.2825 370.642L32.7002 398.597H643.081L642.027 370.642H34.2825Z" fill="black"/>
<path d="M193.617 331.107L322.078 317.898L323.66 343.216L264.942 349.043C260.892 349.372 256.815 349.055 252.864 348.103L193.509 332.759C193.319 332.709 193.153 332.595 193.039 332.436C192.924 332.277 192.869 332.084 192.882 331.888C192.894 331.693 192.975 331.508 193.109 331.365C193.243 331.223 193.423 331.131 193.617 331.107Z" fill="#535461"/>
<path opacity="0.2" d="M193.617 331.107L322.078 317.898L323.66 343.216L264.942 349.043C260.892 349.372 256.815 349.055 252.864 348.103L193.509 332.759C193.319 332.709 193.153 332.595 193.039 332.436C192.924 332.277 192.869 332.084 192.882 331.888C192.894 331.693 192.975 331.508 193.109 331.365C193.243 331.223 193.423 331.131 193.617 331.107Z" fill="black"/>
<path d="M193.617 330.577L323.137 317.369L324.719 342.687L265.995 347.448C261.948 347.782 257.873 347.471 253.923 346.526L193.509 332.235C193.316 332.188 193.146 332.075 193.028 331.915C192.911 331.755 192.853 331.559 192.866 331.361C192.879 331.162 192.962 330.975 193.099 330.832C193.236 330.689 193.42 330.598 193.617 330.577Z" fill="#535461"/>
<path opacity="0.3" d="M224.325 331.5L292.81 324.517L293.647 337.902L262.597 340.425C260.456 340.6 258.3 340.433 256.211 339.93L224.268 332.371C224.168 332.346 224.079 332.286 224.019 332.202C223.958 332.118 223.928 332.016 223.935 331.912C223.942 331.809 223.984 331.711 224.056 331.636C224.127 331.56 224.222 331.512 224.325 331.5Z" fill="white"/>
<path opacity="0.1" d="M275.831 242.855C275.416 243.425 274.693 243.681 273.588 243.521C263.047 241.938 250.923 257.237 250.923 257.237C250.923 257.237 250.707 257.442 250.314 257.807C249.084 255.064 248.055 252.235 247.235 249.343L269.371 232.961L275.831 242.855Z" fill="black"/>
<path opacity="0.1" d="M244.309 262.01C239.351 264.773 232.527 266.755 227.205 261.441C218.012 252.242 201.899 253.466 200.897 253.523C202.542 253.296 203.999 249.912 205.24 245.378L207.699 241.391C207.699 241.391 244.07 232.961 244.599 254.606C244.661 257.078 244.564 259.551 244.309 262.01Z" fill="black"/>
<path opacity="0.1" d="M225.23 215.367L221.929 239.289L214.489 253.803C209.879 252.621 205.111 252.173 200.362 252.475C205.604 251.752 208.991 218.972 208.991 218.972L209.292 218.904L225.23 215.367Z" fill="black"/>
<path d="M273.589 242.468C263.047 240.884 250.923 256.183 250.923 256.183C250.923 256.183 236.693 269.899 227.205 260.404C218.012 251.205 201.899 252.43 200.897 252.487C206.139 251.758 209.526 218.978 209.526 218.978L209.827 218.91L260.412 207.655C260.412 207.655 263.428 212.28 266.832 218.169C272.974 228.781 280.373 243.487 273.589 242.468Z" fill="#EC7580"/>
<path opacity="0.1" d="M260.935 221.37C261.465 222.424 252.5 227.698 248.288 226.115C244.076 224.531 233.529 232.95 232.476 234.026C231.423 235.103 207.704 232.443 207.704 232.443C208.688 227.98 209.398 223.46 209.827 218.91L260.412 207.655C260.412 207.655 263.428 212.28 266.832 218.169C263.685 219.462 260.679 220.852 260.935 221.37Z" fill="black"/>
<path opacity="0.1" d="M230.364 178.116L225.241 215.367L222.828 232.876C215.758 232.346 207.186 231.395 207.186 231.395C207.186 231.395 216.146 193.945 201.386 174.436C201.386 174.436 201.699 174.436 202.263 174.379C210.545 188.152 230.364 178.116 230.364 178.116Z" fill="black"/>
<path d="M201.904 174.425C201.904 174.425 228.787 172.317 239.329 179.699C249.87 187.081 265.159 209.238 265.159 209.238L273.594 214.512C273.594 214.512 260.417 219.257 260.947 220.316C261.476 221.376 252.511 226.645 248.299 225.061C244.087 223.478 233.54 231.896 232.487 232.973C231.434 234.049 207.716 231.389 207.716 231.389C207.716 231.389 216.663 193.939 201.904 174.425Z" fill="#EC7580"/>
<path d="M296.948 188.311L429.65 186.295C431.361 186.47 433.019 186.984 434.529 187.807C436.039 188.63 437.37 189.746 438.444 191.09C439.518 192.433 440.314 193.978 440.785 195.633C441.256 197.288 441.393 199.02 441.188 200.728L426.132 326.152C425.772 329.165 424.367 331.956 422.16 334.038C419.954 336.12 417.087 337.361 414.06 337.543L278.427 345.945C276.506 346.06 274.584 345.745 272.801 345.024C271.017 344.302 269.416 343.192 268.116 341.773C266.815 340.355 265.846 338.664 265.281 336.824C264.715 334.984 264.566 333.04 264.846 331.135L282.855 199.321C283.338 196.025 285.072 193.041 287.697 190.99C290.321 188.94 293.635 187.98 296.948 188.311Z" fill="#535461"/>
<path opacity="0.2" d="M296.948 188.311L429.65 186.295C431.361 186.47 433.019 186.984 434.529 187.807C436.039 188.63 437.37 189.746 438.444 191.09C439.518 192.433 440.314 193.978 440.785 195.633C441.256 197.288 441.393 199.02 441.188 200.728L426.132 326.152C425.772 329.165 424.367 331.956 422.16 334.038C419.954 336.12 417.087 337.361 414.06 337.543L278.427 345.945C276.506 346.06 274.584 345.745 272.801 345.024C271.017 344.302 269.416 343.192 268.116 341.773C266.815 340.355 265.846 338.664 265.281 336.824C264.715 334.984 264.566 333.04 264.846 331.135L282.855 199.321C283.338 196.025 285.072 193.041 287.697 190.99C290.321 188.94 293.635 187.98 296.948 188.311Z" fill="black"/>
<path d="M298.001 188.311L430.703 186.295C432.416 186.467 434.077 186.979 435.589 187.801C437.102 188.623 438.436 189.738 439.512 191.082C440.589 192.426 441.386 193.972 441.859 195.628C442.331 197.284 442.469 199.018 442.263 200.728L427.208 326.152C426.848 329.165 425.442 331.956 423.236 334.038C421.03 336.12 418.163 337.361 415.135 337.543L279.485 345.945C277.565 346.06 275.643 345.745 273.859 345.024C272.076 344.302 270.475 343.192 269.174 341.773C267.874 340.355 266.905 338.664 266.339 336.824C265.774 334.984 265.625 333.04 265.904 331.135L283.914 199.321C284.397 196.026 286.13 193.043 288.753 190.992C291.377 188.942 294.689 187.982 298.001 188.311Z" fill="#535461"/>
<path opacity="0.3" d="M362.929 265.935C366.422 265.935 369.253 263.102 369.253 259.607C369.253 256.112 366.422 253.279 362.929 253.279C359.437 253.279 356.605 256.112 356.605 259.607C356.605 263.102 359.437 265.935 362.929 265.935Z" fill="white"/>
<path opacity="0.1" d="M229.897 324.215C209.264 326.436 186.639 325.28 186.639 325.28L163.421 331.608L98.0663 350.598C95.2204 346.913 92.9436 342.282 91.0596 337.065L97.537 329.501C117.92 317.038 124.579 301.46 125.553 287.744C127.294 301.386 127.585 313.672 127.585 313.672L153.938 311.035L192.228 301.921C194.865 301.293 197.566 300.978 200.276 300.981C205.263 300.981 214.136 301.09 223.613 301.602C222.35 306.734 225.594 315.552 229.897 324.215Z" fill="black"/>
<path opacity="0.1" d="M258.829 317.369C246.705 331.608 184.51 328.447 184.51 328.447L161.315 334.775L95.9546 353.759C95.67 353.389 95.3854 353.013 95.1236 352.62L247.229 307.577C256.94 309.537 262.899 312.59 258.829 317.369Z" fill="black"/>
<path d="M258.829 316.315C246.706 330.555 184.51 327.393 184.51 327.393L161.315 333.716L95.9546 352.706C80.5864 332.77 80.9279 285.261 81.7646 266.043C81.9923 260.883 82.2485 257.761 82.2485 257.761C82.2485 257.761 104.384 244.045 114.402 257.761C116.189 260.205 117.686 263.622 118.956 267.587C124.767 285.865 125.479 315.779 125.479 315.779L151.832 313.142L190.122 304.029C192.761 303.401 195.464 303.085 198.176 303.089C214.045 303.135 269.234 304.091 258.829 316.315Z" fill="#FDC2CC"/>
<path opacity="0.1" d="M118.95 267.592C115.586 266.863 111.505 267.023 105.972 269.369C94.9016 274.114 86.4719 273.06 86.4719 273.06C86.4719 273.06 87.1492 267.678 81.7703 266.043C81.998 260.883 82.2541 257.761 82.2541 257.761C82.2541 257.761 104.39 244.045 114.408 257.761C116.178 260.205 117.686 263.622 118.95 267.592Z" fill="black"/>
<path opacity="0.1" d="M184.481 266.732C184.128 266.806 179.387 267.7 170.251 265.673C160.763 263.565 157.075 267.78 151.804 269.893C146.533 272.007 132.855 273.06 127.562 270.953C126.315 270.452 125.063 269.814 123.737 269.244C122.484 264.145 120.589 259.226 118.096 254.606L178.767 254.89L184.265 266.231L184.481 266.732Z" fill="black"/>
<path d="M184.481 265.678C184.481 265.678 179.74 266.732 170.251 264.625C160.763 262.517 157.075 266.732 151.804 268.845C146.533 270.959 132.827 272.012 127.556 269.899C122.286 267.786 117.015 263.571 105.927 268.316C94.839 273.06 86.4263 272.007 86.4263 272.007C86.4263 272.007 87.4793 263.565 76.4142 264.602C65.3491 265.639 57.9667 260.381 57.9667 260.381L69.7262 233.201L73.2552 225.038L161.446 219.006H161.867L184.481 265.678Z" fill="#EC7580"/>
<path opacity="0.1" d="M170.251 240.366C164.451 230.871 133.88 239.312 133.88 239.312C133.88 239.312 119.121 243.533 115.956 235.621C112.791 227.71 90.1602 232.961 90.1602 232.961C90.1602 232.961 73.739 239.124 69.766 233.212L73.295 225.05L161.446 219.006L170.251 240.366Z" fill="black"/>
<path d="M144.974 178.116C144.974 178.116 115.985 172.312 102.284 179.699C88.5836 187.087 78.0421 203.434 78.0421 203.434L58.0065 221.894C58.0065 221.894 65.9126 225.585 69.601 231.913C73.2893 238.241 90.1602 231.913 90.1602 231.913C90.1602 231.913 112.826 226.639 115.99 234.55C119.155 242.462 133.914 238.241 133.914 238.241C133.914 238.241 164.486 229.8 170.286 239.295L144.974 178.116Z" fill="#EC7580"/>
<path opacity="0.1" d="M178.391 42.964C174.463 42.3033 170.422 41.6596 166.529 42.5083C160.108 43.9038 155.213 49.1155 151.61 54.6064C148.007 60.0972 145.207 66.1918 140.762 71.0276C137.785 74.2685 134.125 76.8715 131.472 80.3802C127.568 85.5464 126.207 92.1365 124.949 98.4931C123.105 107.823 121.255 117.289 122.069 126.785C122.479 131.546 123.56 136.234 123.817 141.024C124.335 150.645 121.494 160.088 118.694 169.304C116.753 175.672 114.749 182.16 110.913 187.599C108.369 191.205 105.107 194.224 101.999 197.351C101.249 197.988 100.685 198.817 100.366 199.749C99.6942 202.471 102.978 204.305 105.489 205.536C113.167 209.369 118.204 216.848 124.175 223.011C130.146 229.174 138.69 234.465 146.903 231.993C149.339 231.258 151.65 229.863 154.189 229.908C155.896 229.937 157.536 230.632 159.158 231.201C163.194 232.619 167.443 233.332 171.72 233.309C172.665 233.389 173.613 233.191 174.446 232.739C175.716 231.879 175.96 230.148 176.086 228.621C176.888 219.041 177.685 209.426 177.144 199.828C175.921 178.093 155.851 152.951 163.484 132.554C166.802 123.657 172.87 116.002 176.228 107.122C179.768 97.764 192.251 90.1657 194.727 80.4656C195.006 79.372 195.387 78.1873 196.343 77.6177C197.658 76.8089 199.371 77.5152 200.641 78.3923C207.824 83.3478 210.163 92.6662 212.776 100.994C214.881 107.701 217.49 114.239 220.58 120.553C222.287 123.971 225.953 127.929 229.163 125.856C227.546 140.255 218.212 152.832 216.1 167.163C214.039 181.129 219.031 195.403 217.096 209.38C215.822 218.38 211.75 226.749 205.456 233.303C212.558 234.715 219.862 234.781 226.989 233.497C234.212 232.192 241.941 228.769 244.548 221.9C247.394 214.342 242.994 206.231 240.757 198.461C235.39 179.785 235.805 157.696 237.507 138.336C239.26 118.429 241.89 100.999 237.433 81.5194C236.34 76.7405 235.231 71.9218 233.136 67.4904C228.73 58.1777 219.669 51.5135 209.736 49.1668C204.614 47.9593 199.388 49.8332 194.619 48.9447C192.217 48.4947 190.065 46.1936 187.731 45.2594C184.737 44.0348 181.527 43.488 178.391 42.964Z" fill="black"/>
<path d="M244.52 220.806C241.913 227.676 234.183 231.099 226.954 232.403C219.828 233.684 212.524 233.619 205.422 232.209C211.713 225.654 215.786 217.285 217.062 208.287C219.003 194.303 214.011 180.03 216.066 166.069C218.177 151.732 227.512 139.156 229.129 124.757C225.919 126.83 222.224 122.889 220.54 119.454C217.451 113.139 214.843 106.601 212.736 99.8943C210.123 91.5669 207.784 82.2371 200.601 77.293C199.332 76.4159 197.618 75.7096 196.303 76.5241C195.341 77.0937 194.966 78.2955 194.687 79.372C192.217 89.055 179.728 96.6647 176.194 106.023C172.83 114.903 166.762 122.541 163.444 131.455C155.839 151.846 175.909 176.988 177.105 198.723C177.64 208.321 176.843 217.941 176.046 227.516C175.915 229.048 175.67 230.78 174.401 231.64C173.569 232.092 172.623 232.29 171.68 232.209C167.415 232.235 163.177 231.526 159.152 230.113C157.53 229.544 155.902 228.849 154.183 228.82C151.644 228.781 149.334 230.176 146.897 230.905C138.684 233.377 130.135 228.086 124.17 221.923C118.204 215.76 113.15 208.292 105.477 204.482C102.967 203.229 99.6828 201.418 100.354 198.689C100.676 197.76 101.24 196.934 101.988 196.297C105.096 193.17 108.363 190.145 110.907 186.546C114.744 181.106 116.742 174.618 118.688 168.25C121.5 159.035 124.34 149.591 123.811 139.97C123.56 135.203 122.479 130.515 122.064 125.731C121.244 116.253 123.099 106.775 124.944 97.445C126.196 91.0884 127.556 84.4983 131.467 79.3322C134.125 75.8235 137.779 73.2205 140.762 69.9795C145.213 65.1437 148.002 59.0491 151.61 53.5526C155.219 48.0561 160.114 42.8501 166.535 41.4546C170.422 40.6059 174.469 41.2552 178.397 41.9103C181.533 42.44 184.743 42.9868 187.709 44.1886C190.048 45.1227 192.2 47.4296 194.596 47.8681C199.366 48.7624 204.608 46.8884 209.714 48.096C219.646 50.437 228.708 57.1012 233.113 66.4139C233.975 68.2572 234.702 70.1609 235.287 72.1098C236.13 74.8438 236.773 77.6405 237.411 80.4315C237.547 81.0011 237.678 81.6162 237.803 82.2029C241.702 100.749 239.186 114.254 237.485 133.545C235.783 152.837 235.367 178.685 240.729 197.339C242.966 205.131 247.389 213.248 244.52 220.806Z" fill="#865A61"/>
<path opacity="0.05" d="M183.719 254.338C183.719 254.338 187.936 261.173 187.936 265.94C187.936 265.94 191.101 254.338 193.736 254.338" fill="black"/>
<path opacity="0.1" d="M168.914 239.728C168.683 239.919 168.402 240.041 168.104 240.078C167.806 240.116 167.504 240.068 167.233 239.94C166.961 239.812 166.732 239.61 166.571 239.357C166.41 239.103 166.324 238.809 166.324 238.509C166.322 238.111 166.473 237.728 166.745 237.438C166.95 237.621 167.149 237.82 167.349 238.008C167.895 238.566 168.413 239.136 168.914 239.728Z" fill="black"/>
<path opacity="0.2" d="M248.282 347.169C248.719 347.169 249.073 346.815 249.073 346.378C249.073 345.94 248.719 345.586 248.282 345.586C247.845 345.586 247.491 345.94 247.491 346.378C247.491 346.815 247.845 347.169 248.282 347.169Z" fill="black"/>
<path d="M456.396 330.31C456.396 330.31 447.358 327.245 443.009 335.214C441.862 337.374 441.278 339.79 441.312 342.236C441.345 344.682 441.996 347.081 443.202 349.208C446.048 354.375 451.945 361.084 463.124 360.486C472.584 359.979 475.732 352.757 476.586 346.036C476.913 343.516 476.588 340.954 475.643 338.596C474.697 336.237 473.162 334.161 471.185 332.566C469.208 330.972 466.855 329.911 464.352 329.487C461.848 329.063 459.277 329.289 456.886 330.144L456.396 330.31Z" fill="#00B51F"/>
<path opacity="0.1" d="M445.115 349.926C443.908 347.798 443.258 345.4 443.224 342.954C443.19 340.507 443.774 338.092 444.921 335.931C449.27 327.957 458.309 331.027 458.309 331.027L458.77 330.862C462.216 329.614 466.004 329.7 469.391 331.101C467.522 329.988 465.429 329.303 463.264 329.096C461.099 328.889 458.915 329.165 456.869 329.905L456.408 330.07C456.408 330.07 447.369 327.006 443.02 334.974C441.873 337.135 441.289 339.55 441.323 341.997C441.357 344.443 442.007 346.841 443.214 348.969C445.098 352.387 448.291 356.436 453.459 358.652C449.932 356.562 447.046 353.544 445.115 349.926Z" fill="white"/>
<path opacity="0.2" d="M451.729 334.143C451.729 334.143 455.082 336.78 463.215 334.143H451.729Z" fill="black"/>
<path d="M451.012 314.982C451.012 314.982 456.755 330.549 456.277 334.621L460.83 334.143C460.83 334.143 453.141 320.49 455.081 314.982H451.012Z" fill="#FF63B3"/>
<path opacity="0.2" d="M451.012 314.982C451.012 314.982 456.755 330.549 456.277 334.621L460.83 334.143C460.83 334.143 453.141 320.49 455.081 314.982H451.012Z" fill="black"/>
<path d="M474.457 316.281C474.457 316.281 465.418 311.656 461.365 315.477C457.313 319.299 456.698 329.068 456.698 329.068C456.698 329.068 471.446 331.101 474.457 316.281Z" fill="#009A1A"/>
<path opacity="0.1" d="M474.457 316.281C474.457 316.281 465.418 311.656 461.365 315.477C457.313 319.299 456.698 329.068 456.698 329.068C456.698 329.068 471.446 331.101 474.457 316.281Z" fill="white"/>
<path d="M456.704 329.068C456.704 329.068 459.077 317.727 474.457 316.281" stroke="#006B12" stroke-miterlimit="10"/>
</g>
<defs>
<clipPath id="clip0">
<rect width="649" height="442" fill="white"/>
</clipPath>
</defs>
</svg>
