<svg width="448" height="310" viewBox="0 0 448 310" fill="none" xmlns="http://www.w3.org/2000/svg">
<g clip-path="url(#clip0)">
<path d="M40.4896 135.391C32.1956 142.181 45.7675 201.783 45.7675 201.783C45.7675 201.783 48.7835 292.693 55.1925 296.843C61.6015 300.992 75.9275 296.466 81.5824 295.711C87.2374 294.957 82.3364 238.75 74.0424 218.003C65.7485 197.256 72.1575 167.078 72.1575 167.078L117.02 175.754C117.02 175.754 89.8764 198.765 91.0074 203.669C92.1384 208.573 121.167 225.17 126.445 225.925C131.723 226.679 141.902 195.747 150.95 174.622C159.998 153.498 89.1225 139.918 89.1225 139.918L79.3205 121.434C79.3205 121.434 48.7836 128.601 40.4896 135.391Z" fill="#2F2E41"/>
<path d="M63.0059 298.408C63.0059 298.408 60.2701 307.989 63.0059 307.989C65.7416 307.989 70.757 310.726 78.5082 309.814C86.2594 308.901 83.9797 299.321 78.5082 297.952C73.0368 296.583 74.4047 285.634 74.4047 285.634C72.5808 281.984 63.9177 286.546 63.9177 286.546L63.0059 298.408Z" fill="#2F2E41"/>
<path d="M101.845 222.222C101.845 222.222 97.1517 231.01 99.8258 231.587C102.5 232.164 106.826 235.898 114.595 236.642C122.364 237.386 122.155 227.539 117.095 225.047C112.035 222.555 115.68 212.14 115.68 212.14C114.666 208.187 105.236 210.819 105.236 210.819L101.845 222.222Z" fill="#2F2E41"/>
<path d="M45.579 53.7223C46.333 55.2312 42.94 74.0924 42.94 74.0924L45.956 79.3735C45.956 79.3735 63.298 72.5835 60.659 71.4518C58.02 70.3202 58.397 56.3629 58.397 56.3629C58.397 56.3629 44.825 52.2134 45.579 53.7223Z" fill="#FFB9B9"/>
<path d="M52.1063 59.5363C64.8725 59.5363 75.2215 49.181 75.2215 36.4073C75.2215 23.6335 64.8725 13.2783 52.1063 13.2783C39.3401 13.2783 28.991 23.6335 28.991 36.4073C28.991 49.181 39.3401 59.5363 52.1063 59.5363Z" fill="#2F2E41"/>
<path d="M50.5121 24.3253C55.7947 24.3253 60.077 20.0404 60.077 14.7547C60.077 9.46899 55.7947 5.18408 50.5121 5.18408C45.2296 5.18408 40.9472 9.46899 40.9472 14.7547C40.9472 20.0404 45.2296 24.3253 50.5121 24.3253Z" fill="#2F2E41"/>
<path d="M54.6968 19.0895C55.0278 19.1239 55.3604 19.1412 55.6931 19.1413C56.9492 19.1413 58.193 18.8937 59.3535 18.4127C60.514 17.9318 61.5684 17.2268 62.4566 16.3381C63.3448 15.4494 64.0493 14.3943 64.53 13.2332C65.0107 12.072 65.2581 10.8275 65.2581 9.57063C65.2581 8.3138 65.0107 7.06927 64.53 5.90811C64.0493 4.74694 63.3448 3.69189 62.4566 2.80317C61.5684 1.91446 60.514 1.20949 59.3535 0.728521C58.193 0.247551 56.9492 -3.74565e-08 55.6931 0C55.3604 8.56368e-05 55.0278 0.0173562 54.6968 0.0517445C57.0482 0.298258 59.2251 1.40742 60.8074 3.16523C62.3897 4.92303 63.2653 7.20492 63.2653 9.57063C63.2653 11.9363 62.3897 14.2182 60.8074 15.976C59.2251 17.7338 57.0482 18.843 54.6968 19.0895Z" fill="#2F2E41"/>
<path d="M52.742 63.5301C61.4868 63.5301 68.5759 56.4368 68.5759 47.6868C68.5759 38.9367 61.4868 31.8434 52.742 31.8434C43.9971 31.8434 36.908 38.9367 36.908 47.6868C36.908 56.4368 43.9971 63.5301 52.742 63.5301Z" fill="#FFB9B9"/>
<path d="M29.9335 72.0177C25.0325 73.1493 16.7385 85.2205 16.7385 85.2205L29.9335 98.4233C29.9335 98.4233 39.3585 133.882 40.4895 135.391C47.899 145.276 81.2054 123.32 81.2054 123.32C81.2054 123.32 79.8859 112.569 80.6399 107.288C81.3651 102.209 77.8124 92.0105 77.8124 92.0105C77.8124 92.0105 90.2534 86.7294 87.6144 81.4483C84.9754 76.1672 68.7644 64.096 61.9785 68.2455C55.1925 72.3949 41.6205 68.2455 41.6205 68.2455C41.6205 68.2455 34.8345 70.886 29.9335 72.0177Z" fill="#E6E6E6"/>
<path d="M126.257 148.028C126.257 148.028 147.746 166.512 153.024 162.74C158.302 158.968 132.666 145.765 132.666 145.765L126.257 148.028Z" fill="#FFB9B9"/>
<path d="M29.745 141.615C32.761 145.01 47.087 136.334 45.2503 132.481C43.4137 128.628 32.007 136.334 32.007 136.334C32.007 136.334 26.729 138.22 29.745 141.615Z" fill="#FFB9B9"/>
<path d="M29.9335 90.5016L14.0996 119.925C14.0996 119.925 32.1955 135.014 34.4575 135.391C36.7195 135.768 29.9335 145.576 29.9335 145.576C29.9335 145.576 9.57556 131.242 1.65858 124.075C-6.2584 116.907 16.7386 85.2205 16.7386 85.2205L23.5246 81.071L29.9335 90.5016Z" fill="#E6E6E6"/>
<path d="M75.9274 89.37L94.4004 118.039C94.4004 118.039 122.675 149.726 126.445 151.235C130.215 152.743 134.739 145.576 134.739 145.576L100.809 104.459L87.9914 81.4482L83.0904 79.5621L75.9274 89.37Z" fill="#E6E6E6"/>
<path d="M52.1063 38.4333C60.9106 38.4333 68.0478 34.1484 68.0478 28.8627C68.0478 23.577 60.9106 19.2921 52.1063 19.2921C43.302 19.2921 36.1647 23.577 36.1647 28.8627C36.1647 34.1484 43.302 38.4333 52.1063 38.4333Z" fill="#2F2E41"/>
<path d="M96.8276 235.36C96.3052 235.36 95.8043 235.568 95.4348 235.938C95.0654 236.308 94.8575 236.809 94.8569 237.332V304.586C94.8575 305.109 95.0654 305.61 95.4348 305.98C95.8043 306.349 96.3052 306.557 96.8276 306.558H326.017C326.54 306.557 327.04 306.349 327.41 305.98C327.779 305.61 327.987 305.109 327.988 304.586V237.331C327.987 236.809 327.779 236.307 327.41 235.938C327.04 235.568 326.54 235.36 326.017 235.36L96.8276 235.36Z" fill="#E6E6E6"/>
<path d="M99.7955 301.616H323.049V240.301H99.7955V301.616Z" fill="white"/>
<path d="M294.869 288.896C294.44 288.896 294.015 288.98 293.619 289.144C293.222 289.308 292.862 289.548 292.558 289.852C292.255 290.155 292.014 290.515 291.85 290.912C291.685 291.308 291.601 291.733 291.601 292.163C291.601 292.592 291.685 293.017 291.85 293.413C292.014 293.81 292.255 294.17 292.558 294.474C292.862 294.777 293.222 295.017 293.619 295.181C294.015 295.345 294.44 295.429 294.869 295.429H307.927C308.792 295.429 309.623 295.085 310.235 294.472C310.847 293.86 311.191 293.029 311.191 292.163C311.191 291.296 310.847 290.465 310.235 289.853C309.623 289.24 308.792 288.896 307.927 288.896H294.869Z" fill="#00B51F"/>
<path d="M311.191 282.561H160.457V283.42H311.191V282.561Z" fill="#E6E6E6"/>
<path d="M128.949 289.983C139.45 289.983 147.963 281.466 147.963 270.959C147.963 260.452 139.45 251.934 128.949 251.934C118.448 251.934 109.936 260.452 109.936 270.959C109.936 281.466 118.448 289.983 128.949 289.983Z" fill="#00B51F"/>
<path d="M160.695 277.762L160.219 277.047L175.883 266.598L186.623 271.757L202.073 261.88L232.806 274.998L257.279 262.969L281.045 272.609L310.906 246.144L311.476 246.788L281.216 273.606L257.313 263.909L232.83 275.943L202.153 262.849L186.683 272.739L175.952 267.585L160.695 277.762Z" fill="#3F3D56"/>
<path d="M163.249 289.346C162.882 289.345 162.518 289.417 162.179 289.557C161.84 289.697 161.532 289.903 161.273 290.162C161.013 290.422 160.807 290.73 160.667 291.069C160.526 291.408 160.454 291.772 160.454 292.139C160.454 292.506 160.526 292.869 160.667 293.208C160.807 293.547 161.013 293.855 161.273 294.115C161.532 294.374 161.84 294.58 162.179 294.72C162.518 294.86 162.882 294.932 163.249 294.932H192.451C193.19 294.931 193.899 294.636 194.422 294.112C194.945 293.589 195.238 292.879 195.238 292.139C195.238 291.398 194.945 290.689 194.422 290.165C193.899 289.641 193.19 289.347 192.451 289.346H163.249Z" fill="#E6E6E6"/>
<path d="M136.211 262.448H139.182L133 268.569C131.92 269.634 130.465 270.231 128.948 270.231C127.432 270.231 125.977 269.634 124.897 268.569L118.716 262.448H121.687L126.383 267.098C127.067 267.772 127.988 268.151 128.949 268.151C129.909 268.151 130.831 267.772 131.515 267.098L136.211 262.448ZM121.649 279.47H118.678L124.898 273.311C125.977 272.245 127.433 271.648 128.949 271.648C130.466 271.648 131.921 272.245 133.001 273.311L139.221 279.47H136.25L131.515 274.782C130.831 274.107 129.909 273.729 128.949 273.729C127.988 273.729 127.067 274.107 126.383 274.782L121.649 279.47Z" fill="white"/>
<path d="M126.672 19.9376C126.15 19.9382 125.649 20.1461 125.279 20.5158C124.91 20.8855 124.702 21.3867 124.701 21.9095V89.1639C124.702 89.6866 124.91 90.1878 125.279 90.5575C125.649 90.9272 126.15 91.1351 126.672 91.1357H355.861C356.384 91.1351 356.885 90.9271 357.254 90.5575C357.624 90.1878 357.832 89.6866 357.832 89.1639V21.9094C357.832 21.3867 357.624 20.8855 357.254 20.5158C356.885 20.1461 356.384 19.9382 355.861 19.9376L126.672 19.9376Z" fill="#E6E6E6"/>
<path d="M129.64 86.1943H352.893V24.8791H129.64V86.1943Z" fill="white"/>
<path d="M324.713 73.4742C323.848 73.4742 323.017 73.8183 322.405 74.4309C321.793 75.0434 321.449 75.8742 321.449 76.7405C321.449 77.6068 321.793 78.4376 322.405 79.0502C323.017 79.6627 323.848 80.0069 324.713 80.0069H337.771C338.637 80.0069 339.467 79.6627 340.079 79.0502C340.691 78.4376 341.035 77.6068 341.035 76.7405C341.035 75.8742 340.691 75.0434 340.079 74.4309C339.467 73.8183 338.637 73.4742 337.771 73.4742H324.713Z" fill="#00B51F"/>
<path d="M341.035 67.1385H190.302V67.9979H341.035V67.1385Z" fill="#E6E6E6"/>
<path d="M158.794 74.5614C169.294 74.5614 177.807 66.0437 177.807 55.5367C177.807 45.0296 169.294 36.512 158.794 36.512C148.293 36.512 139.78 45.0296 139.78 55.5367C139.78 66.0437 148.293 74.5614 158.794 74.5614Z" fill="#00B51F"/>
<path d="M190.54 62.3394L190.064 61.6243L205.727 51.1759L216.468 56.3348L231.917 46.4585L232.126 46.5473L262.65 59.576L287.124 47.5466L310.889 57.1869L340.751 30.722L341.32 31.3654L311.06 58.1835L287.157 48.4875L262.675 60.521L231.998 47.427L216.527 57.3166L205.796 52.1623L190.54 62.3394Z" fill="#3F3D56"/>
<path d="M193.093 73.9235C192.353 73.9244 191.644 74.2191 191.122 74.7428C190.599 75.2665 190.305 75.9764 190.305 76.7165C190.305 77.4567 190.599 78.1665 191.122 78.6902C191.644 79.2139 192.353 79.5086 193.093 79.5095H222.295C223.035 79.5095 223.745 79.2153 224.269 78.6915C224.792 78.1677 225.086 77.4573 225.086 76.7165C225.086 75.9758 224.792 75.2653 224.269 74.7416C223.745 74.2178 223.035 73.9235 222.295 73.9235H193.093Z" fill="#E6E6E6"/>
<path d="M166.444 53.3161C166.799 50.9354 164.987 49.6556 162.51 48.8018L163.314 45.5768L161.351 45.0876L160.569 48.2276C160.054 48.099 159.524 47.9777 158.998 47.8575L159.786 44.6967L157.825 44.2075L157.021 47.4314C156.594 47.3341 156.175 47.2379 155.768 47.1367L155.77 47.1267L153.065 46.4507L152.543 48.5474C152.543 48.5474 153.998 48.8812 153.968 48.9019C154.239 48.9344 154.487 49.0723 154.658 49.2858C154.829 49.4993 154.909 49.7714 154.882 50.0436L153.967 53.7176C154.036 53.7349 154.104 53.7567 154.17 53.783L153.964 53.7315L152.68 58.8782C152.652 58.9681 152.606 59.0514 152.546 59.1236C152.485 59.1957 152.411 59.2551 152.328 59.2984C152.244 59.3418 152.153 59.3682 152.059 59.3761C151.965 59.384 151.871 59.3733 151.781 59.3445C151.801 59.3731 150.355 58.9884 150.355 58.9884L149.381 61.236L151.935 61.8729C152.41 61.992 152.875 62.1167 153.333 62.2341L152.521 65.4965L154.481 65.9858L155.285 62.7585C155.82 62.9039 156.34 63.0381 156.848 63.1645L156.047 66.3766L158.009 66.8658L158.821 63.6101C162.166 64.2435 164.682 63.988 165.74 60.961C166.593 58.5232 165.698 57.117 163.938 56.1995C165.22 55.9026 166.185 55.0589 166.443 53.3161L166.444 53.3161ZM161.96 59.6057C161.354 62.0434 157.252 60.7261 155.922 60.3951L156.999 56.0737C158.329 56.4058 162.593 57.0634 161.961 59.6057H161.96ZM162.567 53.2809C162.014 55.4984 158.599 54.3717 157.491 54.0955L158.468 50.1761C159.576 50.4523 163.143 50.9678 162.567 53.2809Z" fill="white"/>
<path d="M216.84 127.649C216.317 127.649 215.817 127.857 215.447 128.227C215.078 128.597 214.87 129.098 214.869 129.62V196.875C214.87 197.398 215.078 197.899 215.447 198.269C215.817 198.638 216.317 198.846 216.84 198.847H446.029C446.552 198.846 447.053 198.638 447.422 198.269C447.792 197.899 447.999 197.398 448 196.875V129.62C447.999 129.098 447.792 128.597 447.422 128.227C447.053 127.857 446.552 127.649 446.029 127.649L216.84 127.649Z" fill="#E6E6E6"/>
<path d="M219.808 193.905H443.061V132.59H219.808V193.905Z" fill="white"/>
<path d="M414.881 181.185C414.016 181.185 413.185 181.529 412.573 182.142C411.961 182.754 411.617 183.585 411.617 184.452C411.617 185.318 411.961 186.149 412.573 186.761C413.185 187.374 414.016 187.718 414.881 187.718H427.939C428.805 187.718 429.635 187.374 430.247 186.761C430.859 186.149 431.203 185.318 431.203 184.452C431.203 183.585 430.859 182.754 430.247 182.142C429.635 181.529 428.805 181.185 427.939 181.185H414.881Z" fill="#00B51F"/>
<path d="M431.203 174.849H280.47V175.709H431.203V174.849Z" fill="#E6E6E6"/>
<path d="M248.961 182.272C259.462 182.272 267.975 173.755 267.975 163.248C267.975 152.741 259.462 144.223 248.961 144.223C238.461 144.223 229.948 152.741 229.948 163.248C229.948 173.755 238.461 182.272 248.961 182.272Z" fill="#00B51F"/>
<path d="M280.708 170.051L280.231 169.336L295.894 158.887L306.636 164.046L322.085 154.17L322.294 154.258L352.818 167.287L377.292 155.258L401.057 164.898L430.919 138.433L431.488 139.077L401.228 165.895L377.325 156.199L352.843 168.232L322.166 155.138L306.695 165.028L295.964 159.874L280.708 170.051Z" fill="#3F3D56"/>
<path d="M283.261 181.635C282.521 181.635 281.811 181.929 281.287 182.453C280.764 182.976 280.47 183.687 280.47 184.428C280.47 185.168 280.764 185.879 281.287 186.403C281.811 186.926 282.521 187.221 283.261 187.221H312.463C313.203 187.221 313.913 186.926 314.437 186.403C314.96 185.879 315.254 185.168 315.254 184.428C315.254 183.687 314.96 182.976 314.437 182.453C313.913 181.929 313.203 181.635 312.463 181.635H283.261Z" fill="#E6E6E6"/>
<path d="M248.959 175.786L256.656 164.94L248.959 169.487L241.267 164.94L248.959 175.786H248.959Z" fill="white"/>
<path d="M248.959 168.03H248.959L256.652 163.48L248.959 150.709H248.959L241.267 163.48L248.959 168.03Z" fill="white"/>
</g>
<defs>
<clipPath id="clip0">
<rect width="448" height="310" fill="white"/>
</clipPath>
</defs>
</svg>
