<svg width="572" height="333" viewBox="0 0 572 333" fill="none" xmlns="http://www.w3.org/2000/svg">
<path d="M431.527 217L425.688 196.434H425.512C425.785 199.936 425.922 202.658 425.922 204.598V217H419.086V188.445H429.359L435.316 208.719H435.473L441.312 188.445H451.605V217H444.516V204.48C444.516 203.829 444.522 203.107 444.535 202.312C444.561 201.518 444.652 199.572 444.809 196.473H444.633L438.871 217H431.527ZM457.758 217V188.445H465.512V217H457.758ZM484.301 217H476.586V194.754H469.613V188.445H491.254V194.754H484.301V217Z" fill="#00B51F"/>
<path d="M184.734 324.666C274.468 324.666 347.211 251.987 347.211 162.333C347.211 72.6791 274.468 0 184.734 0C95.0009 0 22.2576 72.6791 22.2576 162.333C22.2576 251.987 95.0009 324.666 184.734 324.666Z" fill="#F2F2F2"/>
<path d="M572 287.97C571.999 288.364 571.967 288.758 571.905 289.148C567.932 313.476 441.447 333 286 333C130.553 333 4.06743 313.476 0.0945904 289.148C0.0324851 288.758 0.000859999 288.364 0 287.97C0 287.859 -1.86762e-06 287.742 0.0111265 287.631C0.0111265 287.569 0.0166919 287.514 0.0166919 287.453C0.0212879 287.431 0.023158 287.408 0.0222573 287.386C0.0445141 287.136 0.0778995 286.897 0.122413 286.652C1.93634 276.707 24.2432 267.567 60.6275 260.246C90.3849 254.258 129.562 249.483 174.655 246.481C208.875 244.201 246.5 242.939 286 242.939C317.783 242.939 348.352 243.757 376.908 245.258H376.919C382.895 245.575 388.782 245.921 394.58 246.297C434.269 248.866 469.491 252.796 497.868 257.716C515.323 260.746 530.196 264.154 541.931 267.845H541.937C559.998 273.532 570.648 279.909 571.878 286.652C571.922 286.897 571.955 287.136 571.978 287.386C571.977 287.408 571.979 287.431 571.983 287.453C571.983 287.514 571.989 287.569 571.989 287.631C572 287.742 572 287.859 572 287.97Z" fill="#3F3D56"/>
<path opacity="0.1" d="M278.767 331.332C329.471 331.332 370.576 325.359 370.576 317.99C370.576 310.621 329.471 304.648 278.767 304.648C228.062 304.648 186.957 310.621 186.957 317.99C186.957 325.359 228.062 331.332 278.767 331.332Z" fill="black"/>
<path opacity="0.1" d="M541.931 267.845C538.72 268.762 535.104 269.613 531.137 270.391C514.8 273.605 492.51 275.578 467.966 275.578C440.546 275.578 415.969 273.115 399.315 269.218C385.494 265.983 377.125 261.774 377.125 257.155C377.125 253.096 383.602 249.338 394.58 246.297C434.269 248.866 469.491 252.796 497.868 257.716C515.323 260.746 530.196 264.154 541.931 267.845Z" fill="black"/>
<path opacity="0.1" d="M296.016 261.702C296.016 270.113 243.2 276.935 178.054 276.935C112.909 276.935 60.0934 270.113 60.0934 261.702C60.1074 261.171 60.295 260.66 60.6276 260.246C90.3849 254.258 129.562 249.483 174.655 246.481C175.784 246.475 176.918 246.473 178.054 246.475C243.2 246.475 296.016 253.291 296.016 261.702Z" fill="black"/>
<path d="M254.928 186.222H231.733V261.041H254.928V186.222Z" fill="#00B51F"/>
<path d="M178.717 151.13H155.523V261.042H178.717V151.13Z" fill="#00B51F"/>
<path d="M103.169 151.13H79.9745V261.042H103.169V151.13Z" fill="#00B51F"/>
<path d="M140.943 151.13H117.749V225.949H140.943V151.13Z" fill="#00B51F"/>
<path d="M216.491 151.13H193.297V172.98H216.491V151.13Z" fill="#00B51F"/>
<path d="M216.491 186.222H193.297V261.041H216.491V186.222Z" fill="#8A8B8C"/>
<path d="M292.702 151.13H231.733V172.98H292.702V151.13Z" fill="#00B51F"/>
<path d="M453.517 144.558C469.374 144.558 482.872 150.087 494.01 161.146C499.255 166.346 503.388 172.557 506.157 179.402C511.676 193.405 511.695 208.975 506.211 222.992C503.483 229.758 499.362 235.875 494.114 240.945C488.718 246.315 482.321 250.576 475.284 253.487C468.389 256.362 460.992 257.84 453.521 257.836C446.134 257.858 438.818 256.396 432.008 253.537C418.136 247.637 407.089 236.6 401.183 222.741C395.497 208.919 395.515 193.412 401.233 179.604C404.129 172.651 408.378 166.342 413.735 161.043C424.532 150.055 437.793 144.56 453.517 144.558H453.517ZM453.722 154.774C440.765 154.774 429.865 159.292 421.023 168.327C416.663 172.704 413.176 177.87 410.748 183.549C408.376 189.114 407.153 195.099 407.153 201.147C407.153 207.195 408.376 213.181 410.748 218.746C415.638 230.093 424.722 239.116 436.108 243.935C441.703 246.246 447.699 247.432 453.754 247.423C459.809 247.415 465.802 246.212 471.39 243.885C477.139 241.492 482.378 238.025 486.826 233.67C495.666 225.04 500.086 214.217 500.084 201.201C500.117 195.1 498.947 189.051 496.642 183.4C494.34 177.791 490.934 172.7 486.626 168.43C477.509 159.327 466.542 154.775 453.722 154.774Z" fill="#00B51F"/>
<path opacity="0.1" d="M419.216 283.71C419.216 310.805 381.416 302.424 335.134 302.424C288.852 302.424 251.613 310.805 251.613 283.71C251.613 256.616 289.408 250.723 335.691 250.723C381.973 250.723 419.216 256.616 419.216 283.71Z" fill="black"/>
<path d="M419.216 277.039C419.216 304.134 381.416 295.753 335.134 295.753C288.852 295.753 251.613 304.134 251.613 277.039C251.613 249.945 289.408 244.052 335.691 244.052C381.973 244.052 419.216 249.945 419.216 277.039Z" fill="#3F3D56"/>
<path d="M411.496 228.399L413.406 236.273C413.428 236.361 413.424 236.453 413.397 236.539L404.73 263.598C404.696 263.705 404.626 263.797 404.532 263.859C404.438 263.92 404.325 263.948 404.213 263.937C404.101 263.926 403.996 263.877 403.916 263.798C403.836 263.719 403.785 263.615 403.772 263.503L402.573 252.962C402.566 252.892 402.573 252.821 402.595 252.754L410.55 228.362C410.583 228.261 410.648 228.172 410.736 228.111C410.824 228.05 410.929 228.019 411.037 228.023C411.144 228.027 411.246 228.066 411.329 228.134C411.412 228.202 411.471 228.295 411.496 228.399Z" fill="#2F2E41"/>
<path d="M410.793 229.064L412.557 235.819L404.913 260.493L403.149 252.856L410.793 229.064Z" fill="#F2F2F2"/>
<path d="M372.281 265.78C372.575 266.661 402.855 265.486 403.149 265.192C403.406 264.825 403.623 264.431 403.796 264.017C404.073 263.43 404.325 262.843 404.325 262.843L403.149 253.332L373.163 252.268C373.163 252.268 372.413 260.328 372.26 264.017C372.208 264.604 372.215 265.195 372.281 265.78Z" fill="#2F2E41"/>
<path opacity="0.1" d="M399.328 254.618L399.915 262.843H386.686V254.618H399.328Z" fill="black"/>
<path opacity="0.1" d="M382.276 257.262L382.355 257.246L381.982 260.786H374.633V257.262H382.276Z" fill="black"/>
<path opacity="0.1" d="M372.281 265.78C372.575 266.661 402.855 265.486 403.149 265.192C403.406 264.825 403.623 264.431 403.796 264.018H372.26C372.208 264.604 372.215 265.195 372.281 265.78Z" fill="black"/>
<path d="M325.537 234.938H333.768L354.053 227.008C354.053 227.008 368.459 221.133 367.283 232.295C366.107 243.457 364.049 258.437 364.049 258.437C364.049 258.437 357.581 255.499 354.053 256.381C350.526 257.262 352.878 238.463 352.878 238.463C352.878 238.463 324.067 252.268 321.421 250.506C318.775 248.744 318.187 236.407 318.187 236.407L325.537 234.938Z" fill="#2F2E41"/>
<path opacity="0.1" d="M325.537 234.938H333.768L354.053 227.008C354.053 227.008 368.459 221.133 367.283 232.295C366.107 243.457 364.049 258.437 364.049 258.437C364.049 258.437 357.581 255.499 354.053 256.381C350.526 257.262 352.878 238.463 352.878 238.463C352.878 238.463 324.067 252.268 321.421 250.506C318.775 248.744 318.187 236.407 318.187 236.407L325.537 234.938Z" fill="black"/>
<path d="M338.506 209.183L348.468 223.483L371.693 242.869C371.693 242.869 393.154 247.862 390.214 251.387C387.274 254.912 369.341 247.862 369.341 247.862C369.341 247.862 342.588 228.476 341.706 227.008C340.824 225.539 331.122 211.734 331.122 211.734L338.506 209.183Z" fill="#A0616A"/>
<path opacity="0.1" d="M338.506 209.183L348.468 223.483L371.693 242.869C371.693 242.869 393.154 247.862 390.214 251.387C387.274 254.912 369.341 247.862 369.341 247.862C369.341 247.862 342.588 228.476 341.706 227.008C340.824 225.539 331.122 211.734 331.122 211.734L338.506 209.183Z" fill="black"/>
<path d="M337.002 193.523C344.309 193.523 350.232 187.605 350.232 180.305C350.232 173.005 344.309 167.087 337.002 167.087C329.696 167.087 323.773 173.005 323.773 180.305C323.773 187.605 329.696 193.523 337.002 193.523Z" fill="#A0616A"/>
<path d="M336.12 192.054C336.12 192.054 331.71 199.691 330.828 203.803C329.946 207.915 317.599 195.579 317.599 195.579L315.982 191.32C315.982 191.32 327.595 185.886 326.713 181.48C325.831 177.074 336.12 192.054 336.12 192.054Z" fill="#A0616A"/>
<path d="M332.592 197.635L339.06 210.265C339.06 210.265 337.59 216.434 335.238 217.021C332.886 217.609 322.891 209.384 322.891 209.384L332.592 197.635Z" fill="#D0CDE1"/>
<path d="M338.472 214.965L350.526 230.826L379.336 252.268C379.336 252.268 400.209 256.674 395.506 259.905C390.802 263.136 377.278 256.968 377.278 256.968C377.278 256.968 348.174 241.4 342 234.938C335.826 228.476 324.361 217.608 324.361 217.608L338.472 214.965Z" fill="#A0616A"/>
<path d="M322.303 239.638L325.831 245.219L346.885 238.601C349.166 237.864 351.58 237.631 353.959 237.918C356.339 238.205 358.628 239.005 360.668 240.262C364.343 242.575 366.695 246.247 361.403 251.681C350.82 262.549 343.764 256.674 343.764 256.674C343.764 256.674 308.191 273.417 302.312 265.192C296.432 256.968 296.138 252.856 296.138 252.856C296.138 252.856 318.775 238.757 322.303 239.638Z" fill="#2F2E41"/>
<path d="M366.401 259.024C366.401 259.024 375.809 265.192 364.637 268.13C353.465 271.067 345.234 266.955 345.234 266.955C345.234 266.955 335.532 266.955 335.532 261.961C335.532 256.968 338.766 256.381 338.766 256.381L348.762 257.849C348.762 257.849 360.815 254.618 366.401 259.024Z" fill="#D0CDE1"/>
<path d="M347.855 176.98C348.724 177.447 349.659 177.782 350.627 177.972C351.114 178.059 351.615 178.002 352.07 177.807C352.524 177.613 352.912 177.29 353.184 176.878C353.401 176.389 353.5 175.857 353.475 175.324C353.51 173.711 353.393 171.967 352.37 170.719C351.719 169.924 350.769 169.424 350.095 168.649C349.642 168.068 349.256 167.438 348.945 166.771C347.634 164.311 345.693 161.948 342.996 161.239C341.856 160.994 340.688 160.905 339.524 160.973L332.732 161.069C331.632 161.034 330.533 161.152 329.465 161.42C327.279 162.081 325.687 163.918 324.23 165.674C323.098 166.955 322.092 168.341 321.227 169.814C320.053 172.001 319.46 174.452 319.503 176.933C319.494 177.569 319.576 178.203 319.747 178.816C319.948 179.378 320.195 179.923 320.488 180.442C321.762 182.942 322.518 186.064 321.084 188.475C323.576 187.458 326.041 186.125 327.685 183.995C328.42 183.043 328.997 181.927 329.977 181.228C330.957 180.529 332.553 180.469 333.182 181.495C333.398 181.91 333.509 182.371 333.506 182.839C333.487 183.612 333.613 184.382 333.878 185.108C334.02 185.467 334.281 185.768 334.617 185.959C334.953 186.151 335.344 186.222 335.726 186.162C337.006 185.801 336.884 183.839 337.87 182.947C338.618 182.27 339.773 182.399 340.735 182.092C341.287 181.883 341.788 181.561 342.208 181.148C342.629 180.734 342.958 180.238 343.176 179.69C343.54 178.874 343.535 176.738 344.224 176.296C345.088 175.742 347.054 176.623 347.855 176.98Z" fill="#2F2E41"/>
<path d="M314.932 189.927C315.527 189.768 316.154 189.769 316.748 189.931C318.635 190.437 322.866 191.777 323.773 193.817C324.949 196.46 329.065 200.572 329.065 200.572C329.065 200.572 334.65 206.153 333.474 209.972C332.298 213.79 327.889 218.196 327.889 218.196C327.889 218.196 329.064 236.407 323.185 241.107C317.305 245.806 314.953 242.575 314.953 246.981C314.953 251.387 296.726 265.192 293.198 256.674C293.198 256.674 294.962 240.813 294.374 235.232C293.794 229.732 294.643 195.414 314.932 189.927Z" fill="#D0CDE1"/>
<path d="M324.361 197.341C324.361 197.341 342.294 210.559 339.06 216.14C339.06 216.14 328.183 221.427 325.831 221.133C323.479 220.839 314.365 210.559 312.013 209.678C309.661 208.797 308.485 192.935 324.361 197.341Z" fill="#D0CDE1"/>
<path d="M274.766 209.186C271.977 210.127 269.45 212.328 268.879 215.213C268.614 216.551 268.777 217.941 268.554 219.286C268.037 222.406 265.586 224.789 263.326 227.002C261.065 229.215 258.73 231.786 258.565 234.944C258.385 238.402 260.895 241.641 260.46 245.076C259.956 249.067 255.737 251.654 254.694 255.539C253.997 258.134 254.851 260.928 256.255 263.219C258.93 267.584 263.504 270.548 268.374 272.137C273.244 273.725 278.431 274.06 283.554 274.113C289.792 274.179 296.565 273.644 301.252 269.53C303.929 267.16 305.61 263.866 305.959 260.308C306.404 255.544 304.413 250.621 305.786 246.036C306.65 243.151 308.817 240.516 308.494 237.521C308.178 234.594 305.618 232.519 303.863 230.153C302.223 227.945 301.229 225.337 300.254 222.766L296.918 213.969C296.263 212.24 295.542 210.421 294.081 209.286C291.345 207.161 286.947 207.579 283.748 208.017C280.78 208.424 277.62 208.223 274.766 209.186Z" fill="#2F2E41"/>
<path d="M275.811 234.811C275.811 234.811 277.29 239.613 266.199 245.153C255.109 250.693 267.308 256.602 267.308 256.602L280.247 259.557C280.247 259.557 293.555 257.71 295.034 255.494C296.512 253.278 299.1 245.891 298.361 244.783C297.808 243.994 297.189 243.253 296.512 242.567C296.512 242.567 287.64 241.09 288.01 237.027C288.38 232.964 275.811 234.811 275.811 234.811Z" fill="#FFB9B9"/>
<path opacity="0.1" d="M275.811 234.811C275.811 234.811 277.29 239.613 266.199 245.153C255.109 250.693 267.308 256.602 267.308 256.602L280.247 259.557C280.247 259.557 293.555 257.71 295.034 255.494C296.512 253.278 299.1 245.891 298.361 244.783C297.808 243.994 297.189 243.253 296.512 242.567C296.512 242.567 287.64 241.09 288.01 237.027C288.38 232.964 275.811 234.811 275.811 234.811Z" fill="black"/>
<path d="M283.019 242.383C289.553 242.383 294.849 237.091 294.849 230.564C294.849 224.036 289.553 218.745 283.019 218.745C276.486 218.745 271.19 224.036 271.19 230.564C271.19 237.091 276.486 242.383 283.019 242.383Z" fill="#FFB9B9"/>
<path d="M281.726 255.494C281.726 255.494 267.479 254.453 267.209 244.632C267.209 244.632 262.133 244.045 260.654 245.522C259.176 246.999 254.37 248.107 254.37 251.801C254.37 255.494 262.503 266.575 262.503 266.575C262.503 266.575 266.939 281.348 265.09 283.934C263.242 286.519 262.872 293.167 262.872 293.167C262.872 293.167 281.356 291.69 284.313 293.167C287.271 294.645 299.1 294.645 299.839 293.167C300.579 291.69 299.1 273.223 299.1 273.223C299.1 273.223 302.427 268.791 301.688 263.62L310.56 253.278C310.56 253.278 307.233 243.306 302.057 243.306C302.057 243.306 295.034 241.459 294.849 242.383C294.664 243.306 298.361 253.648 281.726 255.494Z" fill="#FF6584"/>
<path d="M248.455 287.997C248.455 287.997 251.782 293.167 260.285 294.275C268.787 295.383 270.266 292.429 269.527 291.69C268.787 290.951 259.915 287.627 259.915 287.627L254.74 283.564L248.455 287.997Z" fill="#FFB9B9"/>
<path d="M309.081 283.564L299.47 289.105C299.47 289.105 286.901 288.366 291.707 292.059C296.512 295.753 305.384 294.275 305.384 294.275L313.887 290.213L309.081 283.564Z" fill="#FFB9B9"/>
<path d="M261.024 293.167C261.024 293.167 252.152 314.958 262.872 318.283C273.593 321.607 303.166 320.868 309.82 316.436C316.474 312.004 318.323 306.094 317.214 304.248C316.105 302.401 308.711 297.23 303.536 296.861C298.361 296.491 261.024 293.167 261.024 293.167Z" fill="#2F2E41"/>
<path opacity="0.05" d="M261.024 293.167C261.024 293.167 252.152 314.958 262.872 318.283C273.593 321.607 303.166 320.868 309.82 316.436C316.474 312.004 318.323 306.094 317.214 304.248C316.105 302.401 308.711 297.23 303.536 296.861C298.361 296.491 261.024 293.167 261.024 293.167Z" fill="black"/>
<path d="M302.903 294.521C302.903 294.521 334.219 283.195 333.849 296.861C333.479 310.526 313.887 314.22 313.887 314.22L307.972 314.959L275.441 316.067C275.441 316.067 276.55 310.157 273.963 309.418C273.963 309.418 282.465 307.202 282.835 306.833C283.204 306.464 304.275 299.077 305.754 298.707C307.233 298.338 311.669 295.383 314.996 295.753C314.996 295.753 318.692 292.798 322.759 293.537L311.299 294.275L302.903 294.521Z" fill="#2F2E41"/>
<path opacity="0.1" d="M302.903 294.521C302.903 294.521 334.219 283.195 333.849 296.861C333.479 310.526 313.887 314.22 313.887 314.22L307.972 314.959L275.441 316.067C275.441 316.067 276.55 310.157 273.963 309.418C273.963 309.418 282.465 307.202 282.835 306.833C283.204 306.464 304.275 299.077 305.754 298.707C307.233 298.338 311.669 295.383 314.996 295.753C314.996 295.753 318.692 292.798 322.759 293.537L311.299 294.275L302.903 294.521Z" fill="black"/>
<path d="M297.37 296.355L301.318 305.356L325.347 296.86L327.195 292.059L320.91 290.951L308.276 293.167L302.797 294.645L297.37 296.355Z" fill="#2F2E41"/>
<path opacity="0.1" d="M297.37 296.355L301.318 305.356L325.347 296.86L327.195 292.059L320.91 290.951L308.276 293.167L302.797 294.645L297.37 296.355Z" fill="black"/>
<path d="M246.237 307.202C246.237 307.202 253.261 316.066 261.394 318.283C269.527 320.499 273.963 317.544 273.963 317.544L271.375 307.202L270.266 300.554L265.46 297.23L255.849 292.798L244.389 289.104C244.389 289.104 239.583 288.366 239.583 289.104C239.583 289.843 244.019 300.923 244.019 300.923L246.237 307.202Z" fill="#2F2E41"/>
<path d="M254.74 312.004C254.74 312.004 256.218 322.715 258.067 323.453C259.915 324.192 265.46 322.715 266.939 321.976C268.418 321.237 273.444 317.829 273.444 317.829C273.444 317.829 255.849 311.265 254.74 312.004Z" fill="#F2F2F2"/>
<path d="M288.38 313.112L295.404 314.22L294.664 322.714L284.867 320.337L288.38 313.112Z" fill="#FFB9B9"/>
<path d="M292.78 315.476C292.78 315.476 289.489 319.391 292.816 321.607L295.034 323.453C295.034 323.453 302.427 324.931 303.166 325.669C303.906 326.408 306.863 324.561 306.863 324.561C306.863 324.561 307.233 313.481 306.863 312.742C306.493 312.004 302.057 311.265 301.688 312.004C301.318 312.742 296.882 313.85 294.294 313.112L292.78 315.476Z" fill="#F2F2F2"/>
<path d="M263.242 295.753C263.242 295.753 237.365 280.61 233.299 286.15C229.233 291.69 224.797 299.446 236.626 305.356C248.455 311.265 285.422 323.453 285.422 323.453C285.422 323.453 290.967 314.958 290.967 312.742C290.967 312.742 271.375 303.878 268.048 303.14C264.721 302.401 251.413 293.906 249.564 293.167C247.716 292.429 245.128 290.213 245.128 290.213L263.242 295.753Z" fill="#2F2E41"/>
<path d="M255.849 249.954L254.37 251.062C254.37 251.062 251.043 259.557 250.673 264.358C250.304 269.16 245.868 283.934 246.237 285.78C246.607 287.627 246.977 289.104 249.195 290.951C249.195 290.951 252.152 284.303 257.327 285.411L263.612 262.512L255.849 249.954Z" fill="#FF6584"/>
<path d="M307.602 249.954L310.56 253.278C310.56 253.278 312.408 257.71 312.408 258.818C312.408 259.926 316.105 276.177 316.474 276.916C316.844 277.655 318.323 286.888 316.474 289.104C314.626 291.32 311.299 292.798 311.299 292.798C311.299 292.798 313.517 285.042 306.493 284.672L307.233 281.718L300.579 259.557L307.602 249.954Z" fill="#FF6584"/>
<path d="M256.588 275.383V294.838C256.588 296.066 257.072 297.245 257.935 298.12C258.798 298.995 259.971 299.496 261.2 299.514L301.922 300.117C303.144 300.135 304.325 299.675 305.212 298.835C306.099 297.994 306.622 296.841 306.669 295.62L307.418 276.163C307.442 275.54 307.341 274.918 307.121 274.335C306.901 273.751 306.566 273.217 306.137 272.765C305.707 272.312 305.192 271.95 304.62 271.7C304.048 271.449 303.432 271.316 302.808 271.307L261.337 270.706C260.717 270.697 260.101 270.811 259.525 271.042C258.949 271.273 258.425 271.616 257.983 272.052C257.541 272.487 257.19 273.005 256.951 273.577C256.711 274.149 256.588 274.763 256.588 275.383Z" fill="#3F3D56"/>
<path d="M283.713 230.185C290.746 230.185 296.446 227.118 296.446 223.334C296.446 219.551 290.746 216.484 283.713 216.484C276.681 216.484 270.98 219.551 270.98 223.334C270.98 227.118 276.681 230.185 283.713 230.185Z" fill="#2F2E41"/>
<path d="M281.541 288.55C283.174 288.55 284.498 287.228 284.498 285.596C284.498 283.964 283.174 282.641 281.541 282.641C279.907 282.641 278.583 283.964 278.583 285.596C278.583 287.228 279.907 288.55 281.541 288.55Z" fill="#F2F2F2"/>
</svg>
