<svg width="275" height="247" viewBox="0 0 275 247" fill="none" xmlns="http://www.w3.org/2000/svg">
<path d="M140.837 0.539435L131.889 2.84871L21.6477 31.2996L12.6997 33.6088C8.35645 34.735 4.63689 37.5392 2.35707 41.4065C0.0772586 45.2737 -0.576634 49.888 0.538853 54.2372L39.3394 204.812C40.4647 209.159 43.2668 212.881 47.1311 215.163C50.9953 217.445 55.6061 218.099 59.9519 216.983L59.975 216.977L188.066 183.919L188.089 183.913C192.433 182.787 196.152 179.983 198.432 176.116C200.712 172.248 201.366 167.634 200.25 163.285L161.45 12.7097C160.324 8.36309 157.522 4.64067 153.658 2.35909C149.794 0.0775086 145.183 -0.5769 140.837 0.539435Z" fill="#F2F2F2"/>
<path d="M142.053 5.25943L131.455 7.99461L24.5135 35.5937L13.9154 38.3289C10.8225 39.1308 8.17366 41.1278 6.55014 43.8817C4.92662 46.6357 4.46096 49.9217 5.25533 53.0188L44.0559 203.594C44.8572 206.689 46.8527 209.34 49.6045 210.965C52.3564 212.59 55.6398 213.056 58.7345 212.261L58.7577 212.255L186.849 179.197L186.872 179.191C189.965 178.389 192.614 176.392 194.237 173.638C195.861 170.884 196.326 167.598 195.532 164.501L156.731 13.9262C155.93 10.8309 153.935 8.18006 151.183 6.5553C148.431 4.93053 145.148 4.46449 142.053 5.25943Z" fill="white"/>
<path d="M134.05 54.0197L69.2523 70.7427C68.5286 70.9294 67.7603 70.8208 67.1166 70.4408C66.4729 70.0607 66.0064 69.4403 65.8198 68.716C65.6331 67.9917 65.7416 67.2229 66.1214 66.5787C66.5012 65.9345 67.1211 65.4676 67.8449 65.2808L132.643 48.5578C133.367 48.3718 134.134 48.4809 134.777 48.861C135.421 49.2411 135.887 49.8613 136.073 50.5851C136.26 51.309 136.151 52.0774 135.772 52.7214C135.393 53.3654 134.774 53.8324 134.05 54.0197Z" fill="#F2F2F2"/>
<path d="M147.682 60.3315L71.627 79.9595C70.9033 80.1462 70.1351 80.0376 69.4914 79.6576C68.8476 79.2775 68.3811 78.6571 68.1945 77.9328C68.0079 77.2085 68.1164 76.4397 68.4962 75.7955C68.8759 75.1512 69.4959 74.6844 70.2196 74.4976L146.274 54.8696C146.998 54.6828 147.766 54.7914 148.41 55.1715C149.054 55.5516 149.52 56.172 149.707 56.8963C149.893 57.6206 149.785 58.3894 149.405 59.0336C149.025 59.6778 148.405 60.1447 147.682 60.3315Z" fill="#F2F2F2"/>
<path d="M144.694 95.3248L79.8958 112.048C79.5375 112.14 79.1644 112.161 78.798 112.109C78.4316 112.058 78.0789 111.934 77.7602 111.746C77.4414 111.558 77.1628 111.309 76.9403 111.013C76.7178 110.717 76.5557 110.38 76.4633 110.021C76.3709 109.662 76.35 109.289 76.4017 108.922C76.4535 108.556 76.5769 108.203 76.765 107.884C76.953 107.565 77.202 107.286 77.4977 107.063C77.7934 106.841 78.1301 106.678 78.4884 106.586L143.287 89.863C143.645 89.7705 144.018 89.7495 144.384 89.8013C144.751 89.8531 145.104 89.9767 145.422 90.1649C145.741 90.353 146.02 90.6022 146.242 90.8982C146.465 91.1941 146.627 91.531 146.719 91.8896C146.812 92.2483 146.833 92.6216 146.781 92.9883C146.729 93.355 146.606 93.708 146.418 94.027C146.229 94.3459 145.98 94.6247 145.685 94.8474C145.389 95.0701 145.052 95.2323 144.694 95.3248Z" fill="#F2F2F2"/>
<path d="M158.325 101.637L82.2708 121.265C81.9125 121.357 81.5394 121.378 81.173 121.326C80.8065 121.274 80.4539 121.151 80.1352 120.963C79.8164 120.775 79.5378 120.525 79.3153 120.229C79.0928 119.933 78.9307 119.597 78.8383 119.238C78.7459 118.879 78.725 118.506 78.7767 118.139C78.8285 117.773 78.9519 117.42 79.14 117.101C79.328 116.782 79.577 116.503 79.8727 116.28C80.1684 116.057 80.5051 115.895 80.8634 115.803L156.918 96.1747C157.642 95.988 158.41 96.0966 159.054 96.4766C159.697 96.8567 160.164 97.4771 160.351 98.2014C160.537 98.9257 160.429 99.6945 160.049 100.339C159.669 100.983 159.049 101.45 158.325 101.637Z" fill="#F2F2F2"/>
<path d="M155.337 136.63L90.5392 153.353C89.8157 153.539 89.0479 153.43 88.4046 153.05C87.7613 152.67 87.2951 152.05 87.1086 151.326C86.922 150.602 87.0303 149.833 87.4097 149.189C87.7891 148.545 88.4085 148.078 89.1318 147.891L153.93 131.168C154.654 130.981 155.422 131.09 156.066 131.47C156.709 131.85 157.176 132.47 157.363 133.195C157.549 133.919 157.441 134.688 157.061 135.332C156.681 135.976 156.061 136.443 155.337 136.63Z" fill="#F2F2F2"/>
<path d="M168.969 142.942L92.9144 162.57C92.5559 162.663 92.1826 162.684 91.816 162.632C91.4493 162.581 91.0964 162.457 90.7773 162.269C90.4583 162.081 90.1795 161.832 89.9568 161.536C89.7341 161.24 89.5719 160.902 89.4794 160.544C89.387 160.185 89.366 159.811 89.4179 159.444C89.4698 159.077 89.5934 158.724 89.7817 158.405C89.97 158.086 90.2193 157.807 90.5153 157.585C90.8113 157.362 91.1483 157.2 91.507 157.108L167.562 137.48C168.285 137.293 169.054 137.402 169.697 137.782C170.341 138.162 170.808 138.782 170.994 139.507C171.181 140.231 171.072 141 170.692 141.644C170.313 142.288 169.693 142.755 168.969 142.942Z" fill="#F2F2F2"/>
<path d="M58.1902 87.8896L35.2587 93.8077C34.9117 93.8968 34.5435 93.8446 34.2349 93.6624C33.9264 93.4802 33.7026 93.183 33.6128 92.8359L28.3489 72.408C28.2598 72.0608 28.312 71.6923 28.4941 71.3835C28.6761 71.0747 28.9731 70.8508 29.3199 70.7609L52.2514 64.8428C52.5984 64.7536 52.9666 64.8059 53.2751 64.988C53.5837 65.1702 53.8075 65.4675 53.8973 65.8145L59.1612 86.2424C59.2503 86.5897 59.1981 86.9581 59.016 87.267C58.834 87.5758 58.537 87.7997 58.1902 87.8896Z" fill="#E6E6E6"/>
<path d="M68.8337 129.195L45.9022 135.113C45.5552 135.202 45.1871 135.15 44.8785 134.968C44.5699 134.785 44.3462 134.488 44.2563 134.141L38.9924 113.713C38.9034 113.366 38.9556 112.997 39.1376 112.689C39.3197 112.38 39.6167 112.156 39.9635 112.066L62.895 106.148C63.242 106.059 63.6101 106.111 63.9187 106.293C64.2273 106.475 64.451 106.773 64.5409 107.12L69.8048 127.548C69.8938 127.895 69.8416 128.263 69.6596 128.572C69.4775 128.881 69.1805 129.105 68.8337 129.195Z" fill="#E6E6E6"/>
<path d="M79.4775 170.5L56.546 176.418C56.199 176.507 55.8309 176.455 55.5223 176.273C55.2137 176.09 54.99 175.793 54.9001 175.446L49.6362 155.018C49.5472 154.671 49.5994 154.303 49.7814 153.994C49.9635 153.685 50.2605 153.461 50.6073 153.371L73.5388 147.453C73.8858 147.364 74.2539 147.416 74.5625 147.598C74.8711 147.781 75.0948 148.078 75.1847 148.425L80.4486 168.853C80.5376 169.2 80.4854 169.568 80.3034 169.877C80.1213 170.186 79.8243 170.41 79.4775 170.5Z" fill="#E6E6E6"/>
<path d="M230.206 38.7074H97.8762C93.3895 38.7125 89.088 40.4984 85.9155 43.6734C82.743 46.8484 80.9584 51.1531 80.9534 55.6432V211.145C80.9584 215.635 82.743 219.939 85.9155 223.114C89.088 226.289 93.3895 228.075 97.8762 228.08H230.206C234.692 228.075 238.994 226.289 242.166 223.114C245.339 219.939 247.123 215.635 247.128 211.145V55.6432C247.123 51.1531 245.339 46.8484 242.166 43.6734C238.994 40.4984 234.692 38.7125 230.206 38.7074Z" fill="#E6E6E6"/>
<path d="M230.206 43.5829H97.8763C94.6813 43.5865 91.6181 44.8583 89.3589 47.1192C87.0996 49.3802 85.8288 52.4457 85.8252 55.6432V211.145C85.8288 214.342 87.0996 217.408 89.3589 219.669C91.6181 221.93 94.6813 223.201 97.8763 223.205H230.206C233.401 223.201 236.464 221.93 238.723 219.669C240.983 217.408 242.253 214.342 242.257 211.145V55.6432C242.253 52.4458 240.983 49.3803 238.723 47.1193C236.464 44.8583 233.401 43.5865 230.206 43.5829Z" fill="white"/>
<path d="M244.108 247C261.169 247 275 233.159 275 216.084C275 199.01 261.169 185.169 244.108 185.169C227.047 185.169 213.216 199.01 213.216 216.084C213.216 233.159 227.047 247 244.108 247Z" fill="#00B51F"/>
<path d="M258.883 212.052H248.138V201.299C248.138 200.229 247.713 199.204 246.957 198.447C246.202 197.691 245.177 197.266 244.108 197.266C243.04 197.266 242.015 197.691 241.259 198.447C240.503 199.204 240.079 200.229 240.079 201.299V212.052H229.334C228.265 212.052 227.24 212.477 226.485 213.233C225.729 213.989 225.304 215.015 225.304 216.084C225.304 217.154 225.729 218.18 226.485 218.936C227.24 219.692 228.265 220.117 229.334 220.117H240.079V230.87C240.079 231.94 240.503 232.965 241.259 233.722C242.015 234.478 243.04 234.903 244.108 234.903C245.177 234.903 246.202 234.478 246.957 233.722C247.713 232.965 248.138 231.94 248.138 230.87V220.117H258.883C259.951 220.117 260.976 219.692 261.732 218.936C262.488 218.18 262.912 217.154 262.912 216.084C262.912 215.015 262.488 213.989 261.732 213.233C260.976 212.477 259.951 212.052 258.883 212.052Z" fill="white"/>
<path d="M210.29 129.03H143.372C143.002 129.031 142.635 128.958 142.293 128.817C141.95 128.675 141.639 128.467 141.377 128.206C141.115 127.944 140.907 127.633 140.766 127.29C140.624 126.948 140.551 126.581 140.551 126.21C140.551 125.84 140.624 125.473 140.766 125.13C140.907 124.788 141.115 124.477 141.377 124.215C141.639 123.953 141.95 123.745 142.293 123.604C142.635 123.462 143.002 123.39 143.372 123.39H210.29C211.037 123.391 211.753 123.688 212.281 124.217C212.809 124.746 213.105 125.463 213.105 126.21C213.105 126.958 212.809 127.675 212.281 128.203C211.753 128.732 211.037 129.03 210.29 129.03Z" fill="#E6E6E6"/>
<path d="M221.915 138.549H143.372C143.002 138.549 142.635 138.477 142.293 138.335C141.95 138.194 141.639 137.986 141.377 137.724C141.115 137.462 140.907 137.151 140.766 136.809C140.624 136.466 140.551 136.099 140.551 135.729C140.551 135.358 140.624 134.991 140.766 134.649C140.907 134.306 141.115 133.995 141.377 133.733C141.639 133.471 141.95 133.264 142.293 133.122C142.635 132.981 143.002 132.908 143.372 132.908H221.915C222.662 132.908 223.379 133.205 223.908 133.734C224.436 134.263 224.733 134.981 224.733 135.729C224.733 136.477 224.436 137.194 223.908 137.723C223.379 138.252 222.662 138.549 221.915 138.549Z" fill="#E6E6E6"/>
<path d="M210.29 171.687H143.372C143.002 171.687 142.635 171.615 142.293 171.473C141.95 171.332 141.639 171.124 141.377 170.862C141.115 170.6 140.907 170.289 140.766 169.947C140.624 169.604 140.551 169.237 140.551 168.867C140.551 168.496 140.624 168.129 140.766 167.787C140.907 167.444 141.115 167.133 141.377 166.871C141.639 166.609 141.95 166.402 142.293 166.26C142.635 166.119 143.002 166.046 143.372 166.046H210.29C211.038 166.046 211.754 166.344 212.283 166.872C212.811 167.401 213.108 168.119 213.108 168.867C213.108 169.615 212.811 170.332 212.283 170.861C211.754 171.39 211.038 171.687 210.29 171.687Z" fill="#E6E6E6"/>
<path d="M221.915 181.205H143.372C143.002 181.206 142.635 181.133 142.293 180.992C141.95 180.85 141.639 180.642 141.377 180.38C141.115 180.119 140.907 179.807 140.766 179.465C140.624 179.123 140.551 178.756 140.551 178.385C140.551 178.014 140.624 177.647 140.766 177.305C140.907 176.963 141.115 176.652 141.377 176.39C141.639 176.128 141.95 175.92 142.293 175.779C142.635 175.637 143.002 175.564 143.372 175.565H221.915C222.285 175.564 222.652 175.637 222.994 175.779C223.337 175.92 223.648 176.128 223.91 176.39C224.172 176.652 224.379 176.963 224.521 177.305C224.663 177.647 224.736 178.014 224.736 178.385C224.736 178.756 224.663 179.123 224.521 179.465C224.379 179.807 224.172 180.119 223.91 180.38C223.648 180.642 223.337 180.85 222.994 180.992C222.652 181.133 222.285 181.206 221.915 181.205Z" fill="#E6E6E6"/>
<path d="M128.382 142.87H104.7C104.342 142.869 103.998 142.727 103.745 142.473C103.492 142.22 103.349 141.876 103.349 141.518V120.421C103.349 120.063 103.492 119.719 103.745 119.466C103.998 119.212 104.342 119.069 104.7 119.069H128.382C128.74 119.069 129.084 119.212 129.337 119.466C129.59 119.719 129.733 120.063 129.733 120.421V141.518C129.733 141.876 129.59 142.22 129.337 142.473C129.084 142.727 128.74 142.869 128.382 142.87Z" fill="#E6E6E6"/>
<path d="M128.382 185.526H104.7C104.342 185.526 103.998 185.383 103.745 185.13C103.492 184.876 103.349 184.532 103.349 184.174V163.078C103.349 162.719 103.492 162.376 103.745 162.122C103.998 161.868 104.342 161.726 104.7 161.725H128.382C128.74 161.726 129.084 161.868 129.337 162.122C129.59 162.376 129.733 162.719 129.733 163.078V184.174C129.733 184.532 129.59 184.876 129.337 185.13C129.084 185.383 128.74 185.526 128.382 185.526Z" fill="#E6E6E6"/>
<path d="M210.365 81.5454H161.029C160.281 81.5454 159.564 81.2483 159.036 80.7194C158.507 80.1905 158.21 79.4731 158.21 78.7252C158.21 77.9772 158.507 77.2598 159.036 76.7309C159.564 76.202 160.281 75.9049 161.029 75.9049H210.365C211.112 75.9049 211.829 76.202 212.357 76.7309C212.886 77.2598 213.183 77.9772 213.183 78.7252C213.183 79.4731 212.886 80.1905 212.357 80.7194C211.829 81.2483 211.112 81.5454 210.365 81.5454Z" fill="#CCCCCC"/>
<path d="M221.989 91.0638H161.029C160.658 91.0638 160.292 90.9908 159.95 90.8491C159.608 90.7074 159.298 90.4996 159.036 90.2378C158.774 89.9759 158.567 89.665 158.425 89.3228C158.283 88.9806 158.21 88.6139 158.21 88.2435C158.21 87.8732 158.283 87.5064 158.425 87.1643C158.567 86.8221 158.774 86.5112 159.036 86.2493C159.298 85.9874 159.608 85.7797 159.95 85.638C160.292 85.4962 160.658 85.4233 161.029 85.4233H221.989C222.737 85.4233 223.453 85.7204 223.982 86.2493C224.51 86.7782 224.807 87.4956 224.807 88.2435C224.807 88.9915 224.51 89.7089 223.982 90.2378C223.453 90.7667 222.737 91.0638 221.989 91.0638Z" fill="#CCCCCC"/>
<path d="M150.11 102.599H104.626C104.268 102.599 103.924 102.456 103.671 102.202C103.418 101.949 103.275 101.605 103.275 101.247V65.7221C103.275 65.3635 103.418 65.0198 103.671 64.7663C103.924 64.5127 104.268 64.3701 104.626 64.3698H150.11C150.468 64.3701 150.811 64.5127 151.065 64.7663C151.318 65.0198 151.46 65.3635 151.461 65.7221V101.247C151.46 101.605 151.318 101.949 151.065 102.202C150.811 102.456 150.468 102.599 150.11 102.599Z" fill="#00B51F"/>
</svg>
