<svg width="363" height="223" viewBox="0 0 363 223" fill="none" xmlns="http://www.w3.org/2000/svg">
<g clip-path="url(#clip0)">
<path d="M170.402 222.823L169.945 222.346C170.035 222.259 179.038 213.414 182.468 196.887C185.637 181.625 184.567 156.498 161.475 123.464C151.827 109.661 145.248 96.6202 141.919 84.7037C139.2 74.9667 138.624 65.915 140.208 57.8002C143.34 41.7561 153.983 34.7126 154.09 34.6434L154.447 35.1998C154.342 35.2677 143.922 42.179 140.852 57.9479C137.33 76.0395 144.45 97.9544 162.016 123.083C172.273 137.757 179.101 152.126 182.31 165.791C184.881 176.738 185.148 187.259 183.106 197.064C179.624 213.776 170.494 222.735 170.402 222.823Z" fill="#F2F2F2"/>
<path d="M148.245 71.596C162.354 71.596 173.792 60.1209 173.792 45.9656C173.792 31.8104 162.354 20.3353 148.245 20.3353C134.136 20.3353 122.699 31.8104 122.699 45.9656C122.699 60.1209 134.136 71.596 148.245 71.596Z" fill="#F2F2F2"/>
<path d="M154.268 69.8434C147.384 69.8434 140.654 67.7953 134.93 63.9581C129.206 60.1208 124.745 54.6668 122.11 48.2857C119.476 41.9046 118.786 34.883 120.13 28.1089C121.473 21.3348 124.788 15.1123 129.656 10.2284C134.524 5.3445 140.726 2.01852 147.478 0.671042C154.23 -0.676435 161.228 0.0151154 167.589 2.65824C173.949 5.30136 179.385 9.77735 183.21 15.5202C187.035 21.263 189.076 28.0148 189.076 34.9216C189.066 44.1802 185.395 53.0566 178.87 59.6034C172.344 66.1502 163.497 69.8329 154.268 69.8434ZM154.268 0.662178C147.515 0.662162 140.913 2.67143 135.297 6.43591C129.681 10.2004 125.305 15.551 122.72 21.8111C120.135 28.0712 119.459 34.9597 120.777 41.6054C122.094 48.2511 125.347 54.3556 130.122 59.1468C134.898 63.9381 140.983 67.201 147.607 68.5229C154.231 69.8449 161.096 69.1664 167.336 66.5734C173.576 63.9803 178.909 59.5892 182.661 53.9552C186.413 48.3213 188.416 41.6975 188.416 34.9216C188.406 25.8386 184.805 17.1306 178.403 10.7079C172.001 4.28524 163.322 0.672472 154.268 0.662178Z" fill="#F2F2F2"/>
<path d="M173.792 125.357C185.492 125.357 194.977 115.841 194.977 104.103C194.977 92.3643 185.492 82.8484 173.792 82.8484C162.092 82.8484 152.607 92.3643 152.607 104.103C152.607 115.841 162.092 125.357 173.792 125.357Z" fill="#F2F2F2"/>
<path d="M162.992 199.123C174.692 199.123 184.177 189.607 184.177 177.868C184.177 166.13 174.692 156.614 162.992 156.614C151.292 156.614 141.807 166.13 141.807 177.868C141.807 189.607 151.292 199.123 162.992 199.123Z" fill="#F2F2F2"/>
<path d="M251.929 37.7432H174.379V88.3986H251.929V37.7432Z" fill="#00B51F"/>
<path d="M355.403 222.817H283.582C283.582 222.817 282.126 201.395 290.74 201.152C299.354 200.908 298.383 210.646 309.18 197.257C319.978 183.868 333.081 184.598 334.779 192.51C336.477 200.421 331.503 206.751 340.602 204.803C349.701 202.856 362.804 207.968 355.403 222.817Z" fill="#F2F2F2"/>
<path d="M318.28 222.822L318.038 222.813C318.603 208.708 321.547 199.646 323.918 194.528C326.491 188.97 328.972 186.72 328.996 186.698L329.158 186.88C329.133 186.902 326.682 189.129 324.129 194.649C321.772 199.746 318.844 208.771 318.28 222.822Z" fill="white"/>
<path d="M344.274 222.851L344.042 222.783C345.848 216.806 349.104 211.371 353.518 206.966L353.681 207.146C349.299 211.521 346.067 216.917 344.274 222.851Z" fill="white"/>
<path d="M294.894 222.834L294.654 222.801C295.437 217.513 294.608 212.111 292.277 207.304C291.32 205.288 290.055 203.434 288.525 201.812L288.693 201.636C290.242 203.278 291.525 205.155 292.494 207.196C294.847 212.047 295.684 217.498 294.894 222.834Z" fill="white"/>
<path d="M28.2275 222.748L28.0618 222.407C28.0114 222.303 23.0498 211.897 25.8161 201.637C28.5826 191.377 38.0964 184.9 38.1921 184.836L38.5065 184.625L38.6721 184.967C38.7226 185.07 43.6842 195.476 40.9177 205.736C38.1513 215.996 28.6376 222.473 28.5419 222.537L28.2275 222.748ZM38.2403 185.613C36.5746 186.829 28.8689 192.851 26.4532 201.81C24.0358 210.776 27.6658 219.869 28.4937 221.76C30.1593 220.545 37.865 214.522 40.2805 205.563C42.6982 196.597 39.0682 187.504 38.2403 185.613Z" fill="#3F3D56"/>
<path d="M15.4352 205.649C18.2013 215.908 27.6759 222.262 27.6759 222.262C27.6759 222.262 32.6657 211.982 29.8996 201.724C27.1335 191.465 17.6589 185.111 17.6589 185.111C17.6589 185.111 12.6691 195.391 15.4352 205.649Z" fill="#00B51F"/>
<path d="M28.3769 222.604L27.9992 222.584C27.8842 222.578 16.4088 221.868 8.81748 214.454C1.22652 207.04 0.210898 195.55 0.201553 195.435L0.170776 195.057L0.548472 195.078C0.663523 195.084 12.1389 195.794 19.7301 203.207C27.3212 210.621 28.3368 222.111 28.3461 222.226L28.3769 222.604ZM0.901677 195.771C1.15063 197.822 2.64932 207.506 9.278 213.979C15.9067 220.454 25.5954 221.696 27.646 221.891C27.3971 219.839 25.8984 210.156 19.2695 203.682C12.636 197.203 2.95128 195.964 0.901677 195.771Z" fill="#3F3D56"/>
<path d="M36.5346 203.445C28.9443 210.858 28.0172 222.253 28.0172 222.253C28.0172 222.253 39.3964 221.63 46.9867 214.217C54.5769 206.804 55.504 195.408 55.504 195.408C55.504 195.408 44.1249 196.032 36.5346 203.445Z" fill="#3F3D56"/>
<path d="M98.2445 139.215C90.6543 146.628 89.7272 158.024 89.7272 158.024C89.7272 158.024 101.106 157.4 108.697 149.987C116.287 142.574 117.214 131.179 117.214 131.179C117.214 131.179 105.835 131.802 98.2445 139.215Z" fill="#3F3D56"/>
<path d="M27.8589 183.419C30.5927 183.419 32.8089 181.195 32.8089 178.453C32.8089 175.71 30.5927 173.486 27.8589 173.486C25.1251 173.486 22.9089 175.71 22.9089 178.453C22.9089 181.195 25.1251 183.419 27.8589 183.419Z" fill="#00B51F"/>
<path d="M87.9128 222.492L87.4554 222.015C87.5272 221.945 94.6677 214.928 97.3873 201.816C99.899 189.706 99.046 169.767 80.7187 143.548C66.6626 123.439 60.9745 105.871 63.8125 91.3309C66.3055 78.5572 74.7848 72.9458 74.8702 72.8906L75.2278 73.4471C75.1448 73.5009 66.8879 78.9801 64.4561 91.4789C61.6636 105.832 67.317 123.223 81.2592 143.168C89.4126 154.832 94.8406 166.255 97.3919 177.119C99.4364 185.825 99.6493 194.194 98.0246 201.993C95.2545 215.29 87.986 222.421 87.9128 222.492Z" fill="#3F3D56"/>
<path d="M84.619 89.3918C117.425 89.3918 144.019 84.8144 144.019 79.1679C144.019 73.5214 117.425 68.944 84.619 68.944C51.8133 68.944 25.219 73.5214 25.219 79.1679C25.219 84.8144 51.8133 89.3918 84.619 89.3918Z" fill="#00B51F"/>
<path d="M73.5641 86.4121C32.3912 86.4121 0.139038 80.7404 0.139038 73.4999C0.139038 66.2595 32.3912 60.5878 73.5641 60.5878C114.737 60.5878 146.989 66.2595 146.989 73.4999C146.989 80.7404 114.737 86.4121 73.5641 86.4121ZM73.5641 61.2499C34.1213 61.2499 0.799038 66.8597 0.799038 73.4999C0.799038 80.1402 34.1213 85.7499 73.5641 85.7499C113.007 85.7499 146.329 80.1402 146.329 73.4999C146.329 66.8597 113.007 61.2499 73.5641 61.2499Z" fill="#3F3D56"/>
<path d="M90.249 23.3227C90.249 23.3227 81.4467 20.8351 78.8432 32.9001C76.2397 44.9652 78.2233 51.0599 78.2233 51.0599L97.8735 48.7589C97.8735 48.7589 103.452 26.992 90.249 23.3227Z" fill="#2F2E41"/>
<path d="M77.0797 75.5791C77.0797 75.5791 64.1682 76.8693 66.4679 82.099C68.7676 87.3287 68.7676 87.7902 68.7676 87.7902L80.1128 108.094L83.7923 104.248C83.7923 104.248 79.6528 95.1733 79.6528 92.2508C79.6528 89.3283 75.3601 84.2524 75.3601 84.2524L82.8724 83.6372L77.0797 75.5791Z" fill="#A0616A"/>
<path d="M112.462 81.7914L116.755 91.1741C116.755 91.1741 119.974 94.4043 123.501 107.325C127.027 120.245 127.793 119.784 127.793 119.784L122.427 120.861C122.427 120.861 116.448 106.863 114.455 105.787C112.462 104.71 110.009 94.8657 110.009 94.8657L102.957 85.9444L105.103 81.1761L112.462 81.7914Z" fill="#A0616A"/>
<path d="M107.249 71.0243L113.842 83.3295C113.842 83.3295 105.563 79.4841 104.336 87.944L96.824 82.099C96.824 82.099 86.3987 85.4829 80.1128 84.2524C80.1128 84.2524 81.9526 78.4074 75.3601 75.7926L90.2315 73.9468L89.6183 70.7166L91.1514 67.6403L107.249 71.0243Z" fill="#2F2E41"/>
<path d="M81.0326 105.325C81.0326 105.325 76.8932 104.71 77.9664 108.402L80.1128 115.785C80.1128 115.785 77.3531 123.322 81.6459 121.63C85.9387 119.938 88.6983 109.478 88.6983 109.478C88.6983 109.478 90.5381 101.48 88.6983 101.48C86.8586 101.48 81.0326 100.249 81.6459 101.48C82.2591 102.71 81.0326 105.325 81.0326 105.325Z" fill="#2F2E41"/>
<path d="M127.333 117.63C127.333 117.63 121.967 116.246 120.741 118.4C119.514 120.553 119.821 127.628 119.821 127.782C119.821 127.936 121.661 129.474 122.274 129.474C122.887 129.474 126.72 136.396 131.933 133.935C137.145 131.474 127.333 117.63 127.333 117.63Z" fill="#2F2E41"/>
<path d="M88.6984 42.1069C92.0006 42.1069 94.6776 39.4211 94.6776 36.1081C94.6776 32.795 92.0006 30.1093 88.6984 30.1093C85.3961 30.1093 82.7191 32.795 82.7191 36.1081C82.7191 39.4211 85.3961 42.1069 88.6984 42.1069Z" fill="#A0616A"/>
<path d="M93.6044 37.3386C93.6044 37.3386 94.831 43.7989 95.9042 44.7218C96.9773 45.6446 87.7785 47.029 87.7785 47.029C87.7785 47.029 89.1584 42.5683 87.4719 40.2611C85.7855 37.9539 93.6044 37.3386 93.6044 37.3386Z" fill="#A0616A"/>
<path d="M109.702 73.9468C108.658 73.9468 106 73.513 103.019 72.9546C100.441 72.4717 97.6182 71.8979 95.3921 71.4334C93.0081 70.935 91.3048 70.5628 91.3048 70.5628C91.3048 70.5628 90.6915 74.4082 88.6984 73.9468C86.9813 73.5499 81.8499 55.5673 80.4624 50.5975C80.361 50.2346 80.3806 49.8485 80.5181 49.4978C80.6557 49.1471 80.9037 48.8511 81.2244 48.6548L88.2722 44.3372L90.0782 45.0294C90.0782 45.0294 93.1292 42.6637 94.8999 42.616C96.6707 42.5683 99.737 42.1069 99.737 42.1069C99.737 42.1069 103.263 42.4145 103.876 45.0294C104.49 47.6442 104.796 63.9487 107.096 66.8712C109.396 69.7937 112.615 73.9468 109.702 73.9468Z" fill="#D0CDE1"/>
<path d="M88.2384 82.5604C88.2384 82.5604 88.2384 88.5593 92.2246 87.6364C96.2107 86.7135 92.5312 81.1761 92.5312 81.1761L88.2384 82.5604Z" fill="#A0616A"/>
<path d="M99.277 83.1757C99.277 83.1757 97.8972 90.2512 94.9842 89.1745C92.0713 88.0978 94.9842 81.7914 94.9842 81.7914L99.277 83.1757Z" fill="#A0616A"/>
<path opacity="0.15" d="M105.716 66.4098C105.716 66.4098 104.215 70.0029 103.019 72.9547C100.441 72.4717 97.6182 71.8979 95.3921 71.4334C95.552 71.0086 95.7765 70.6112 96.0575 70.2552C97.1307 69.0247 96.5174 68.717 96.5174 68.717C95.5975 66.8712 96.3641 64.4102 96.3641 64.4102C94.5244 59.4881 97.284 53.3354 97.284 53.3354L105.716 66.4098Z" fill="black"/>
<path d="M97.7439 53.3355C97.7439 53.3355 94.9842 59.4881 96.824 64.4102C96.824 64.4102 96.0574 66.8712 96.9773 68.717C96.9773 68.717 97.5905 69.0247 96.5173 70.2552C95.4441 71.4857 94.5243 75.7926 95.2908 76.7154C96.0574 77.6383 94.2176 79.3303 94.6776 80.2532C95.1375 81.1761 93.911 82.4066 93.911 82.4066C93.911 82.4066 98.5104 83.3295 99.277 84.7139C99.277 84.7139 100.197 83.6372 99.7369 82.4066C99.277 81.1761 99.5836 80.7147 100.044 79.9456C100.504 79.1765 101.883 77.4845 102.037 76.7154C102.19 75.9464 106.176 66.4098 106.176 66.4098L104.307 49.0308L97.7439 53.3355Z" fill="#D0CDE1"/>
<path d="M81.7992 49.0286L81.5128 49.0808C81.1134 49.1535 80.7524 49.3653 80.4934 49.6788C80.2344 49.9923 80.094 50.3875 80.097 50.7947C80.1079 52.3391 80.1946 55.0798 80.5727 58.8728C81.1859 65.0254 83.3323 74.2544 83.7923 75.1773C84.5227 76.8104 85.3416 78.4022 86.2453 79.9456C87.6251 82.2528 87.9317 81.4837 87.6251 82.5604C87.5318 82.857 87.5255 83.1742 87.6071 83.4743C87.6887 83.7743 87.8546 84.0444 88.085 84.2524C88.085 84.2524 90.8447 81.1761 93.6043 82.8681C93.8016 82.4331 93.906 81.9616 93.9109 81.4837C93.9109 80.7146 94.3709 79.9456 93.6043 79.4841C92.8377 79.0227 94.0643 77.0231 92.8378 75.9464C91.6112 74.8696 91.4579 75.0235 91.6112 73.9468C91.6828 73.2147 91.5776 72.476 91.3046 71.7933L81.7992 49.0286Z" fill="#D0CDE1"/>
<path d="M90.9337 28.4022C90.9337 28.4022 88.4542 34.9945 82.3794 37.7309L81.3876 31.8849L90.9337 28.4022Z" fill="#2F2E41"/>
<path d="M94.5243 35.4159C94.99 35.4159 95.3675 34.6928 95.3675 33.8009C95.3675 32.9089 94.99 32.1858 94.5243 32.1858C94.0586 32.1858 93.681 32.9089 93.681 33.8009C93.681 34.6928 94.0586 35.4159 94.5243 35.4159Z" fill="#A0616A"/>
<path d="M267.898 118.812C273.813 118.812 278.608 114.001 278.608 108.067C278.608 102.132 273.813 97.3218 267.898 97.3218C261.983 97.3218 257.188 102.132 257.188 108.067C257.188 114.001 261.983 118.812 267.898 118.812Z" fill="#2F2E41"/>
<path d="M266.468 97.5234C268.433 97.5234 270.025 95.9255 270.025 93.9543C270.025 91.9831 268.433 90.3851 266.468 90.3851C264.503 90.3851 262.91 91.9831 262.91 93.9543C262.91 95.9255 264.503 97.5234 266.468 97.5234Z" fill="#2F2E41"/>
<path d="M262.465 96.1647C261.916 95.4721 261.644 94.5999 261.7 93.7173C261.756 92.8346 262.137 92.0043 262.769 91.3873C262.669 91.4515 262.572 91.5211 262.477 91.5963C262.112 91.8878 261.807 92.2488 261.58 92.6586C261.353 93.0684 261.209 93.5189 261.156 93.9846C261.103 94.4503 261.141 94.9219 261.27 95.3725C261.398 95.8232 261.614 96.244 261.905 96.611C262.195 96.978 262.555 97.284 262.963 97.5115C263.372 97.739 263.821 97.8836 264.285 97.937C264.749 97.9903 265.219 97.9514 265.669 97.8225C266.118 97.6936 266.537 97.4773 266.903 97.1857C266.998 97.1104 267.087 97.0313 267.172 96.9484C266.43 97.426 265.538 97.6104 264.668 97.4656C263.798 97.3208 263.013 96.8572 262.465 96.1647Z" fill="#2F2E41"/>
<path d="M250.356 146.924L244.157 152.186C244.157 152.186 234.859 155.057 239.389 158.166C243.919 161.276 246.541 154.339 246.541 154.339L254.171 149.555L250.356 146.924Z" fill="#FFB9B9"/>
<path d="M263.707 123.961L262.992 123.483C262.992 123.483 260.131 123.483 259.654 126.353C259.178 129.223 257.747 135.203 257.747 135.203C257.747 135.203 252.979 138.074 253.456 143.336L248.449 147.642C248.449 147.642 254.409 149.555 253.217 151.229L262.039 143.097L262.277 127.549L263.707 123.961Z" fill="#2F2E41"/>
<path d="M266.568 118.46C269.992 118.46 272.767 115.675 272.767 112.241C272.767 108.806 269.992 106.021 266.568 106.021C263.145 106.021 260.37 108.806 260.37 112.241C260.37 115.675 263.145 118.46 266.568 118.46Z" fill="#FFB9B9"/>
<path d="M264.661 116.546C264.661 116.546 268.476 120.852 266.092 123.244C263.707 125.635 262.992 137.356 262.992 137.356L273.482 121.33C273.482 121.33 270.621 115.589 270.86 113.676L264.661 116.546Z" fill="#FFB9B9"/>
<path d="M263.946 133.29C263.946 133.29 269.668 120.681 272.767 119.809L280.873 121.808C280.873 121.808 274.436 144.054 275.151 146.206C275.866 148.359 279.92 151.469 278.489 170.365C278.489 170.365 296.847 204.092 292.317 209.832C287.787 215.573 270.86 219.879 270.621 218.204C270.383 216.53 262.754 190.697 263.946 182.803C263.946 182.803 263.946 217.008 262.515 217.726C261.085 218.443 238.197 223.706 238.912 219.639C239.627 215.573 251.071 170.843 251.071 170.843L259.893 143.097L260.131 139.03C260.131 139.03 256.316 136.399 259.177 130.419C262.038 124.439 262.992 123.483 262.992 123.483L266.427 122.836C266.427 122.836 263.23 131.615 263.946 133.29Z" fill="#2F2E41"/>
<path d="M276.82 151.229L273.959 157.449C273.959 157.449 266.568 165.342 271.814 165.581C277.059 165.82 277.535 158.405 277.535 158.405L281.35 151.229H276.82Z" fill="#FFB9B9"/>
<path d="M277.774 122.048H280.873C280.873 122.048 281.827 120.612 282.781 126.592C283.734 132.572 283.257 141.662 283.257 141.662L281.827 153.621C281.827 153.621 276.82 151.708 275.628 152.186C274.436 152.665 275.628 151.947 275.628 151.947L277.774 143.814L275.151 132.094L277.774 122.048Z" fill="#2F2E41"/>
<path d="M265.941 103.07C261.892 104.174 259.13 106.99 259.772 109.359C260.059 110.42 260.981 111.209 262.273 111.661L263.406 110.25L263.458 111.962C263.637 111.992 263.819 112.02 264.007 112.04L265.447 108.997L266.268 112.029C266.942 111.957 267.61 111.83 268.265 111.652C272.314 110.548 275.076 107.732 274.434 105.362C273.792 102.993 269.99 101.967 265.941 103.07Z" fill="#2F2E41"/>
<path d="M272.886 112.121C273.281 112.121 273.602 111.585 273.602 110.925C273.602 110.264 273.281 109.729 272.886 109.729C272.491 109.729 272.171 110.264 272.171 110.925C272.171 111.585 272.491 112.121 272.886 112.121Z" fill="#FFB9B9"/>
<path d="M248.629 222.817C251.727 222.817 254.239 221.706 254.239 220.334C254.239 218.963 251.727 217.851 248.629 217.851C245.531 217.851 243.019 218.963 243.019 220.334C243.019 221.706 245.531 222.817 248.629 222.817Z" fill="#2F2E41"/>
<path d="M279.08 221.635C282.945 220.106 285.536 217.488 284.868 215.787C284.2 214.086 280.525 213.946 276.66 215.475C272.795 217.003 270.203 219.621 270.872 221.322C271.54 223.023 275.215 223.163 279.08 221.635Z" fill="#2F2E41"/>
<path d="M241.195 155.034C241.097 155.01 231.31 152.511 227.586 142.584C223.341 131.27 228.332 115.314 242.419 95.1612C259.625 70.5463 260.559 62.2755 258.313 59.6717C255.472 56.378 246.557 60.8379 246.468 60.8833L246.17 60.2923C246.555 60.097 255.635 55.5558 258.812 59.2379C262.303 63.2843 256.969 75.4984 242.959 95.5414C235.325 106.462 230.336 116.265 228.129 124.676C226.34 131.496 226.364 137.439 228.2 142.341C231.796 151.941 241.257 154.368 241.352 154.391L241.195 155.034Z" fill="#3F3D56"/>
<path d="M246.649 80.4526H163.819V26.1554H246.649V80.4526ZM164.479 79.7905H245.989V26.8175H164.479V79.7905Z" fill="#3F3D56"/>
<path d="M198.315 60.5056C200.234 60.5056 201.791 58.9443 201.791 57.0184C201.791 55.0925 200.234 53.5312 198.315 53.5312C196.395 53.5312 194.839 55.0925 194.839 57.0184C194.839 58.9443 196.395 60.5056 198.315 60.5056Z" fill="#3F3D56"/>
<path d="M227.993 60.5056C229.913 60.5056 231.469 58.9443 231.469 57.0184C231.469 55.0925 229.913 53.5312 227.993 53.5312C226.073 53.5312 224.517 55.0925 224.517 57.0184C224.517 58.9443 226.073 60.5056 227.993 60.5056Z" fill="#3F3D56"/>
<path d="M227.993 71.2356C227.993 72.2726 221.29 75.2593 213.02 75.2593C204.751 75.2593 198.047 72.2726 198.047 71.2356C198.047 70.1985 204.751 71.5038 213.02 71.5038C221.29 71.5038 227.993 70.1985 227.993 71.2356Z" fill="#3F3D56"/>
<path d="M363 222.338H0V223H363V222.338Z" fill="#3F3D56"/>
</g>
<defs>
<clipPath id="clip0">
<rect width="363" height="223" fill="white"/>
</clipPath>
</defs>
</svg>
